<?xml version="1.0" standalone="no"?>
<!DOCTYPE svg PUBLIC "-//W3C//DTD SVG 20010904//EN"
 "http://www.w3.org/TR/2001/REC-SVG-20010904/DTD/svg10.dtd">
<svg version="1.0" xmlns="http://www.w3.org/2000/svg"
 width="300.000000pt" height="451.000000pt" viewBox="0 0 300.000000 451.000000"
 preserveAspectRatio="xMidYMid meet">
<metadata>
Created by potrace 1.10, written by Peter Selinger 2001-2011
</metadata>
<g transform="translate(0.000000,451.000000) scale(0.050000,-0.050000)"
fill="#ffffff" stroke="none">
<path d="M3280 8986 c0 -11 -56 -26 -124 -33 -79 -8 -139 -27 -165 -51 -22
-20 -63 -44 -90 -52 -44 -14 -45 -17 -15 -40 45 -32 43 -70 -3 -70 -35 0 -103
-58 -103 -88 0 -8 -27 -37 -60 -65 -45 -38 -60 -67 -60 -119 0 -38 -13 -89
-28 -114 -37 -59 -54 -169 -61 -414 -6 -178 -12 -209 -52 -251 -62 -66 -51
-501 15 -575 21 -24 56 -101 76 -171 21 -70 65 -165 99 -210 118 -160 77 -493
-64 -525 -30 -6 -118 -42 -195 -80 -201 -97 -559 -223 -710 -249 -147 -25
-277 -77 -317 -126 -16 -18 -38 -33 -51 -33 -72 0 -281 -299 -342 -490 -21
-66 -45 -129 -53 -141 -8 -11 -25 -82 -37 -158 -12 -75 -30 -153 -41 -173 -10
-19 -19 -61 -19 -92 0 -128 -115 -525 -170 -586 -15 -16 -47 -133 -71 -260
-41 -217 -106 -445 -139 -490 -22 -29 9 -550 37 -616 13 -31 23 -101 23 -155
0 -97 165 -279 253 -279 13 0 49 -13 80 -28 87 -43 309 -110 387 -116 l70 -6
15 -220 c17 -232 5 -480 -25 -560 -19 -49 -53 -318 -81 -640 -16 -185 -30
-270 -58 -340 -102 -258 -106 -273 -84 -321 33 -73 215 -72 283 1 l47 50 -49
3 c-26 1 -63 2 -81 2 -41 1 -31 87 17 139 17 19 26 48 19 65 -6 16 -3 35 8 42
10 6 19 2 19 -10 0 -11 9 -21 20 -21 11 0 20 13 20 29 0 15 11 32 25 37 14 4
10 6 -9 3 -19 -3 -38 6 -42 18 -12 37 9 93 34 93 45 0 70 193 29 222 -30 22
-31 30 -7 64 15 21 22 53 15 70 -9 22 -4 26 17 13 23 -14 24 -11 3 14 -15 19
-17 37 -5 49 29 29 31 141 2 175 -22 27 -19 30 19 23 63 -12 100 16 40 30 -26
6 -52 23 -57 38 -6 19 -1 22 17 12 18 -12 22 -7 13 16 -7 18 0 69 16 114 19
53 21 80 7 80 -14 0 -13 11 3 30 14 16 20 47 14 69 -5 21 1 43 13 48 15 7 14
10 -3 11 -16 1 -20 12 -11 27 9 14 17 55 18 92 2 37 15 75 31 85 22 14 22 17
1 18 -16 0 -24 20 -20 55 3 30 -1 65 -8 77 -8 12 -2 39 13 59 15 21 23 49 18
63 -6 14 -1 26 11 26 12 0 16 15 9 33 -9 23 -5 29 10 19 15 -9 19 -3 12 17
-11 27 -17 27 -54 1 -24 -17 -61 -29 -83 -28 -34 2 -35 4 -6 12 19 5 35 18 35
29 0 10 10 13 22 6 12 -8 30 -2 39 12 13 22 22 22 49 -1 27 -23 31 -22 26 2
-6 29 9 31 69 7 20 -7 35 -4 35 8 0 11 25 20 57 19 91 -3 132 29 80 61 -22 14
-35 16 -28 4 7 -11 4 -21 -8 -21 -11 0 -21 9 -21 20 0 10 -45 18 -100 17 -55
-1 -100 -11 -100 -21 0 -10 -9 -13 -19 -7 -11 7 -14 27 -7 45 9 22 -2 18 -33
-13 -35 -35 -49 -40 -62 -20 -9 15 -28 28 -42 31 -15 3 -72 19 -127 36 -64 20
-106 24 -119 11 -26 -26 -43 -24 -78 11 -17 16 -51 32 -77 35 -25 3 -53 14
-61 25 -8 11 -15 5 -15 -15 0 -39 -16 -43 -57 -17 -23 14 -23 20 0 35 41 26
235 21 246 -7 6 -17 28 -18 81 -4 39 11 89 15 111 8 23 -8 39 -3 39 11 0 12
-18 27 -40 33 -22 6 -35 18 -29 27 5 9 -6 27 -26 39 -32 21 -31 22 5 9 89 -33
550 -25 572 9 19 28 20 28 10 -3 -7 -23 0 -35 19 -35 24 0 26 8 9 39 -12 23
-33 35 -51 28 -18 -7 -27 -1 -23 16 4 15 4 20 -1 12 -5 -8 -50 -15 -102 -15
-51 0 -82 7 -70 16 13 8 30 41 38 74 20 84 48 113 94 99 33 -11 36 -7 17 26
-11 22 -15 45 -8 52 6 7 1 25 -12 40 -17 21 -17 43 -2 84 12 31 17 68 11 82
-16 42 6 32 70 -34 32 -33 59 -52 59 -42 0 24 85 4 103 -23 8 -13 25 -9 44 10
28 28 22 32 -57 43 -48 6 -117 30 -154 52 -65 40 -155 55 -157 26 0 -8 -10
-55 -20 -105 -11 -49 -25 -117 -31 -150 -14 -71 -81 -170 -116 -170 -13 0 -46
-20 -72 -44 l-47 -44 15 49 c9 27 15 70 14 96 -1 31 12 50 38 57 22 6 40 23
40 37 0 15 16 37 35 49 31 20 30 22 -9 14 -38 -8 -41 -5 -21 27 13 21 27 33
32 29 4 -5 30 24 56 63 55 80 51 102 -9 65 -57 -36 -109 7 -84 69 9 23 23 68
29 99 7 31 21 50 32 44 22 -14 25 30 4 61 -24 33 -58 23 -112 -36 -70 -75
-139 -45 -87 38 26 43 -7 89 -53 74 -111 -37 -204 3 -109 47 46 21 46 21 -19
59 -70 40 -73 44 -47 84 13 21 32 11 85 -42 82 -81 169 -115 135 -52 -11 21
-42 49 -69 61 -27 12 -49 31 -49 42 0 11 -13 30 -28 42 -39 30 -19 151 25 154
21 1 24 5 8 11 -14 6 -25 26 -25 45 0 19 -8 43 -18 53 -10 11 -4 33 17 54 50
51 183 -235 197 -420 6 -89 17 -125 36 -125 91 0 -68 524 -177 583 -19 10 -35
32 -35 48 0 16 -18 47 -40 69 -22 22 -40 32 -40 21 0 -10 9 -24 20 -31 12 -7
15 -21 9 -31 -6 -11 -1 -19 11 -19 12 0 17 -8 11 -19 -16 -25 -136 26 -144 62
-3 15 -15 68 -25 117 -11 50 -26 107 -34 128 -11 29 -8 35 12 22 20 -12 23 -5
15 27 -6 24 -3 48 7 54 11 7 10 27 -2 50 -45 84 -9 545 43 555 33 6 70 -60 61
-108 -3 -13 9 -34 26 -48 16 -14 30 -37 30 -52 0 -15 17 -65 38 -112 46 -102
109 -306 116 -375 2 -26 13 -71 25 -100 35 -87 101 -387 101 -461 0 -38 10
-83 22 -100 40 -56 2 288 -64 574 -89 391 -229 759 -321 844 -24 23 -37 42
-28 42 9 0 5 13 -8 29 -30 36 -11 73 30 58 16 -6 23 -20 16 -32 -7 -11 0 -16
15 -11 15 5 28 26 28 46 0 62 48 57 85 -8 19 -34 42 -62 50 -62 8 0 15 -14 15
-30 0 -17 22 -77 50 -134 27 -57 50 -115 50 -130 0 -27 24 -35 44 -15 19 18
-28 145 -126 348 -96 196 -104 252 -33 229 27 -8 35 -5 26 10 -61 99 79 -29
172 -158 193 -267 249 -1136 106 -1667 l-47 -178 59 -59 c50 -51 65 -56 91
-34 24 20 45 20 95 2 68 -25 260 -60 421 -78 117 -12 252 26 252 72 1 25 4 26
18 5 13 -22 18 -21 28 2 6 16 46 35 89 42 43 7 96 32 117 56 l38 43 -57 -37
c-52 -33 -60 -33 -80 -6 -16 21 -36 26 -63 15 -37 -14 -12 -28 36 -20 10 2 12
-5 5 -16 -36 -58 -145 35 -112 97 19 34 17 41 -13 41 -40 0 -94 -71 -76 -99 5
-10 -1 -30 -16 -44 -14 -15 -32 -43 -39 -62 -17 -45 -51 -44 -122 3 -54 35
-61 36 -116 5 -51 -29 -60 -29 -77 -3 -13 20 -19 22 -20 5 0 -14 -10 -25 -22
-25 -14 0 -17 19 -9 52 7 28 3 64 -9 78 -22 27 9 67 33 43 19 -18 167 132 167
169 0 58 -151 53 -212 -7 -8 -8 -27 -15 -43 -15 -16 0 -44 -19 -63 -43 -24
-29 -47 -38 -75 -29 -59 18 -85 299 -34 356 39 43 50 120 20 140 -15 9 -14 99
2 299 15 180 17 290 5 297 -11 7 -24 74 -30 150 -13 156 -30 199 -30 73 0
-124 -33 -100 -45 33 -10 116 -80 310 -129 360 -14 15 -26 33 -26 40 0 8 -36
53 -80 102 -100 109 -101 155 -2 93 20 -12 24 -10 14 6 -31 50 73 105 114 61
20 -21 47 -33 59 -25 17 11 17 16 0 22 -12 4 -18 19 -13 33 16 42 118 13 154
-45 24 -38 33 -43 33 -19 1 18 -8 39 -19 46 -35 22 -22 48 42 81 34 18 64 29
66 25 48 -65 86 -188 90 -286 2 -66 14 -123 25 -127 12 -5 36 -25 53 -45 24
-28 36 -31 48 -13 32 50 18 76 -34 63 -52 -13 -53 42 -2 76 15 10 15 21 -2 38
-12 12 -18 37 -11 54 7 19 4 25 -10 17 -12 -7 -30 13 -42 47 -12 33 -15 60 -9
60 7 0 -1 16 -17 35 -35 41 -35 97 -1 90 13 -3 24 6 24 20 1 18 5 18 15 3 27
-40 113 -58 99 -20 -8 18 -3 32 12 32 15 1 13 8 -6 21 -27 18 -27 20 0 17 63
-6 79 2 66 37 -10 30 -6 29 28 -5 23 -22 37 -47 32 -55 -12 -21 4 -19 64 9 35
15 50 35 44 58 -6 23 1 32 23 27 18 -3 39 -7 47 -7 8 -1 10 -15 3 -32 -7 -18
4 -35 26 -44 20 -8 68 -44 105 -80 38 -36 80 -66 95 -66 15 0 27 -10 27 -22 0
-14 28 -19 72 -14 60 7 76 1 93 -38 12 -25 38 -46 58 -46 20 0 37 -9 37 -20 0
-11 9 -20 19 -20 11 0 15 16 9 35 -9 27 -2 24 29 -10 44 -50 102 -58 140 -20
20 20 23 18 12 -9 -7 -18 -36 -37 -66 -42 l-53 -8 54 -3 c29 -2 65 8 80 22 34
32 205 45 185 14 -7 -12 5 -10 30 5 35 22 45 21 59 -1 13 -21 39 -23 105 -11
48 8 99 13 114 10 17 -3 21 5 12 20 -11 17 -3 21 28 13 28 -7 38 -4 30 10 -9
14 -1 17 20 9 19 -8 33 -3 33 12 0 15 8 13 20 -6 13 -20 19 -22 20 -5 0 14 11
25 23 25 13 0 42 16 64 35 28 25 35 26 23 5 -15 -26 -13 -26 16 -3 19 16 34
20 35 10 0 -9 9 -1 21 18 11 19 32 35 46 35 15 0 49 23 77 51 58 57 139 83
122 38 -7 -18 9 -32 46 -41 31 -7 68 -27 82 -44 14 -18 25 -23 25 -13 0 10 15
-4 34 -30 24 -35 27 -51 10 -56 -14 -5 -19 -17 -13 -27 6 -10 2 -19 -10 -20
-51 -7 -58 -9 -73 -23 -8 -8 -1 -15 16 -15 17 0 36 -18 42 -40 16 -61 70 -28
117 72 82 174 139 137 162 -105 3 -41 72 17 85 72 13 50 14 50 43 11 16 -22
38 -38 48 -35 11 3 19 -8 19 -25 0 -16 14 -30 30 -30 17 0 30 -13 30 -29 0
-15 27 -47 59 -70 40 -29 55 -53 47 -75 -8 -20 -5 -28 9 -19 11 7 47 -1 78
-17 31 -16 45 -30 31 -30 -18 0 -20 -10 -7 -35 9 -19 13 -48 8 -63 -6 -17 -1
-22 12 -14 14 8 23 1 23 -17 0 -17 -17 -31 -38 -31 -20 0 -53 -23 -71 -51 -33
-51 -33 -51 8 -29 23 12 37 31 30 41 -6 10 -2 19 10 19 20 0 28 -35 23 -100
-3 -50 29 -82 66 -68 23 9 28 18 13 27 -28 18 -4 85 26 75 13 -4 22 -37 21
-72 -2 -47 4 -62 25 -54 15 6 27 3 27 -6 0 -24 -59 -45 -87 -30 -13 6 -3 -5
21 -25 49 -42 53 -347 8 -597 -12 -66 -22 -122 -22 -125 0 -24 39 5 60 45 32
60 60 66 46 10 -6 -22 -19 -35 -28 -29 -10 6 -18 -2 -18 -17 0 -16 -20 -35
-44 -41 -62 -16 -26 -43 59 -43 39 0 75 -11 80 -25 4 -14 -5 -25 -21 -25 -16
0 -40 -14 -54 -30 -14 -17 -41 -26 -61 -20 -25 8 -38 -3 -48 -41 -9 -40 -22
-51 -51 -43 -26 7 -49 -7 -72 -43 -19 -29 -46 -60 -61 -69 -23 -14 -107 -172
-107 -203 0 -6 -34 -45 -75 -86 -42 -41 -107 -117 -145 -168 -115 -153 -152
-159 -77 -13 68 133 153 256 230 332 43 42 64 104 35 104 -12 0 -100 -90 -191
-194 -29 -33 -64 -93 -78 -133 -32 -87 -79 -113 -79 -43 0 26 -16 57 -35 68
-63 35 -43 830 23 925 18 25 32 58 32 72 0 14 9 41 19 60 10 19 55 112 100
205 84 177 114 230 156 276 14 15 25 34 25 42 0 8 33 48 73 89 41 40 68 79 60
87 -42 41 -346 -269 -323 -330 5 -15 -1 -46 -15 -70 -14 -24 -34 -84 -45 -132
-11 -49 -31 -92 -45 -97 -36 -12 -32 179 5 303 36 119 28 133 -37 64 -46 -50
-49 -68 -52 -296 -1 -134 -8 -250 -13 -259 -23 -37 -47 -13 -60 58 -7 41 -23
87 -34 102 -15 18 -15 30 0 40 11 7 15 27 8 43 -20 50 -129 228 -156 256 -14
15 -26 42 -26 61 0 21 -16 34 -40 34 -31 0 -37 -9 -29 -40 20 -73 75 -191 89
-191 7 0 13 -12 13 -26 0 -35 91 -234 106 -234 7 0 15 -31 18 -70 2 -40 -5
-70 -18 -70 -12 0 -17 -16 -10 -36 6 -20 -1 -53 -17 -74 -29 -40 -13 -105 41
-170 31 -38 86 -299 71 -338 -87 -228 -356 -244 -368 -22 -2 36 -34 80 -58 80
-27 0 -21 -55 7 -68 20 -10 20 -14 0 -24 -35 -16 -31 -48 5 -48 17 0 30 -18
30 -43 0 -24 -5 -38 -12 -32 -16 16 -67 -30 -55 -50 5 -8 -5 -9 -22 -3 -17 7
-31 25 -31 40 0 15 -13 28 -30 28 -17 0 -30 18 -30 42 0 29 -9 39 -29 31 -18
-7 -34 4 -41 28 -7 21 -21 39 -31 39 -11 0 -19 16 -19 36 0 24 -30 49 -85 73
-47 21 -92 47 -100 59 -8 12 -13 0 -10 -28 3 -27 30 -75 61 -106 31 -31 72
-84 91 -119 29 -52 53 -74 120 -109 4 -2 1 -13 -6 -25 -8 -12 -24 -15 -37 -7
-13 8 -46 18 -74 22 -27 3 -96 51 -151 106 -56 54 -108 93 -115 85 -8 -7 -14
-3 -14 9 0 53 -158 107 -272 93 -154 -19 -137 -69 37 -108 150 -34 348 -194
250 -203 -14 -2 -34 -5 -45 -7 -11 -3 -27 -6 -36 -8 -39 -8 30 -78 77 -78 63
0 206 -147 223 -230 8 -40 23 -55 54 -54 38 2 38 3 6 16 -44 17 -48 42 -11 65
21 13 19 17 -8 18 -19 0 -35 10 -35 22 0 13 14 17 35 8 19 -8 48 -19 63 -25
16 -7 9 8 -15 32 -25 25 -39 53 -33 64 7 10 -15 19 -49 19 -33 0 -61 9 -61 20
0 11 -17 20 -39 20 -49 0 -62 21 -48 77 11 39 87 64 87 28 0 -80 464 -122 676
-61 l105 30 43 -59 c61 -87 73 -244 21 -273 -22 -11 -46 -41 -52 -66 -34 -136
-590 -208 -609 -79 -4 27 -21 43 -45 43 -40 0 -45 38 -9 65 12 8 7 15 -10 15
-17 0 -39 -20 -50 -45 -39 -87 -135 -61 -167 45 -37 120 -122 300 -142 300
-27 0 -62 -53 -46 -69 14 -13 22 -74 25 -182 1 -36 100 -176 100 -141 0 8 15
0 34 -19 32 -32 32 -36 -6 -67 -22 -17 -46 -48 -54 -68 -7 -20 -28 -33 -47
-30 -19 4 -46 -18 -66 -54 -19 -33 -54 -70 -77 -82 -24 -12 -60 -37 -80 -55
-21 -18 -47 -33 -59 -33 -12 0 -47 -13 -78 -29 -88 -44 -269 -92 -292 -78 -12
8 -15 4 -7 -9 18 -31 -112 -66 -133 -36 -8 12 -15 -2 -15 -32 0 -53 3 -54 110
-50 60 2 110 11 110 20 0 8 16 21 35 28 19 8 45 27 58 44 27 37 242 -39 433
-153 133 -79 298 -123 513 -135 83 -5 205 -18 270 -29 79 -13 126 -14 139 -1
11 11 13 20 4 20 -9 0 -6 13 7 28 24 29 -29 121 -59 102 -36 -22 -153 132
-270 355 -68 131 -151 96 -149 -62 0 -68 2 -70 29 -35 16 21 24 45 19 54 -5 8
1 22 14 30 22 14 21 -15 -14 -271 -3 -28 2 -60 13 -73 13 -16 4 -23 -34 -23
-29 0 -58 -9 -65 -20 -15 -23 -108 -22 -125 1 -7 9 -43 17 -80 18 -39 1 -83
17 -104 39 -19 20 -47 37 -60 37 -13 0 -49 23 -78 50 -30 28 -64 50 -75 50
-12 0 -21 9 -21 20 0 11 -13 20 -29 20 -47 0 -57 40 -20 81 67 74 202 54 218
-31 8 -42 24 -70 42 -70 45 0 36 105 -13 147 -115 99 136 229 319 164 52 -18
86 -22 94 -9 13 21 -25 79 -48 73 -7 -2 -33 7 -56 21 -25 13 -71 18 -105 11
-40 -8 -62 -4 -62 11 0 12 7 21 15 20 75 -12 144 6 155 42 21 65 49 46 30 -21
-16 -55 -14 -60 21 -49 64 21 115 -8 162 -91 24 -44 58 -79 76 -79 17 0 51 -6
76 -13 74 -20 33 48 -57 94 -43 22 -78 44 -78 49 0 22 165 -8 196 -36 34 -31
83 -21 91 18 2 10 19 17 38 16 19 -2 35 6 35 17 0 11 15 8 34 -8 29 -23 32
-23 21 6 -10 28 18 57 54 57 12 0 39 -110 41 -165 1 -51 -4 -55 -81 -55 -78 0
-164 -20 -259 -60 -22 -9 -51 -20 -64 -24 -17 -4 -14 -20 11 -52 29 -39 65
-52 166 -63 29 -3 177 -164 177 -193 0 -57 -42 -112 -75 -99 -27 11 -26 5 4
-28 39 -43 145 -59 120 -19 -10 15 0 15 30 -1 25 -14 69 -18 105 -10 51 11 60
8 50 -17 -7 -20 1 -35 22 -40 27 -8 26 -10 -6 -12 -22 -1 -53 -11 -70 -22 -21
-14 -5 -17 55 -12 47 4 91 -1 97 -11 6 -10 21 -12 32 -4 14 8 16 4 7 -11 -8
-13 -4 -37 10 -53 15 -18 16 -29 3 -29 -11 0 -25 11 -31 25 -8 18 -17 15 -33
-10 -12 -20 -31 -30 -42 -24 -41 26 -158 29 -158 5 0 -14 -10 -11 -25 8 -20
26 -44 30 -119 18 -56 -9 -103 -7 -114 4 -10 10 -42 13 -70 6 -59 -14 -85 -10
-76 15 3 9 -13 10 -35 3 -22 -7 -56 -3 -77 8 -20 11 -59 23 -86 27 -26 4 -67
17 -90 30 -24 13 -49 17 -56 10 -8 -8 -8 3 0 24 10 24 7 33 -6 25 -20 -12
-143 37 -166 66 -5 7 -44 13 -86 14 -101 2 -96 -56 5 -67 38 -4 75 -17 81 -28
7 -11 34 -24 60 -29 26 -5 53 -19 61 -31 7 -12 18 -19 25 -16 6 4 33 -13 61
-36 27 -24 55 -38 61 -32 7 6 12 -2 12 -20 0 -25 13 -28 69 -15 38 8 73 11 78
7 23 -24 176 -23 167 0 -15 40 65 35 90 -6 13 -21 37 -32 59 -26 22 6 42 -3
49 -23 10 -26 19 -28 41 -9 23 19 28 18 23 -5 -3 -16 6 -25 24 -21 17 4 60 7
96 6 36 -1 61 6 55 15 -18 30 67 39 144 17 49 -14 63 -25 40 -30 -19 -4 -35
-16 -35 -26 0 -11 -7 -18 -15 -17 -8 2 -22 1 -30 -2 -20 -7 -51 -14 -70 -17
-19 -4 -14 -212 5 -243 8 -13 9 -27 4 -33 -6 -5 6 -69 27 -141 39 -136 10
-247 -43 -164 -11 18 -15 -2 -10 -58 7 -74 4 -82 -21 -61 -16 13 -25 41 -20
61 6 22 -2 36 -19 36 -15 0 -28 9 -28 20 0 11 -16 20 -35 20 -30 -1 -31 -3 -5
-20 25 -16 24 -19 -8 -20 -40 0 -26 -30 15 -30 12 -1 22 -16 20 -34 -1 -20 9
-29 25 -22 28 10 72 -70 54 -99 -4 -8 1 -15 13 -15 11 0 17 -20 12 -45 -4 -25
-9 -52 -10 -60 0 -8 -17 -15 -36 -15 -30 -1 -31 -3 -5 -20 17 -11 21 -20 10
-20 -11 0 -20 -21 -20 -46 0 -33 11 -46 39 -45 31 1 43 -17 52 -75 10 -59 7
-74 -14 -66 -15 6 -27 3 -27 -6 0 -10 -20 -23 -44 -29 -55 -14 -37 -34 48 -51
58 -12 66 -22 66 -76 0 -35 8 -61 17 -59 33 6 29 -62 -7 -116 -19 -30 -41 -54
-47 -53 -27 2 -73 -23 -73 -40 0 -40 179 -19 232 27 108 93 134 148 98 203
-78 118 -112 770 -50 942 18 51 28 155 27 287 l-1 207 97 -13 c245 -32 550
270 689 682 52 157 51 168 -34 287 -40 56 -50 255 -27 520 9 104 5 168 -13
210 -23 55 -27 40 -41 -180 -8 -132 -28 -287 -43 -345 -27 -102 -27 -105 19
-135 71 -46 64 -141 -16 -207 -34 -29 -131 -117 -215 -195 -183 -172 -192
-177 -414 -228 -203 -48 -185 -61 -259 180 -29 93 -65 200 -81 236 -50 116
-45 122 114 153 18 3 47 -2 64 -12 53 -30 174 31 174 87 0 30 36 78 105 140
105 95 108 113 26 142 -11 4 -5 60 14 135 19 71 49 206 68 299 18 94 39 176
45 183 15 17 299 -57 353 -92 44 -29 60 484 17 551 -10 16 -24 136 -31 268
-15 284 -82 680 -123 727 -16 18 -54 86 -84 150 -75 160 -334 403 -543 509
-44 23 -91 55 -105 72 -14 17 -59 36 -99 43 -111 19 -201 49 -332 112 -65 31
-128 57 -140 58 -57 3 -244 155 -279 227 -72 147 -69 353 7 470 35 55 73 132
84 172 10 40 35 77 53 83 122 38 183 126 185 263 0 41 13 97 29 124 41 71 40
188 -1 172 -24 -9 -29 -2 -19 28 7 22 5 40 -5 40 -19 0 -17 38 19 300 13 94
23 195 22 225 0 30 5 55 12 55 13 0 20 42 23 128 0 21 -21 61 -48 90 -27 29
-54 72 -62 96 -8 27 -56 66 -121 99 -75 38 -115 72 -128 110 -15 42 -39 60
-106 78 -47 13 -97 32 -111 44 -14 11 -52 35 -84 53 -32 17 -85 48 -119 67
-72 42 -242 70 -242 41z m216 -191 c27 -56 93 -104 120 -88 8 5 32 -3 52 -18
34 -25 26 -27 -70 -18 -59 6 -131 13 -159 15 -74 6 -218 128 -171 146 21 8 57
-3 93 -29 62 -46 102 -58 63 -19 -36 36 -29 80 11 72 19 -3 46 -31 61 -61z
m-221 -85 c65 -56 28 -111 -60 -90 -168 41 -226 82 -182 127 26 25 200 -1 242
-37z m-188 -260 c53 -2 103 -14 111 -28 12 -19 44 -19 149 -1 74 13 201 20
284 16 82 -4 149 -1 149 8 0 26 32 16 80 -25 25 -22 58 -40 73 -40 15 0 27
-17 27 -39 0 -21 9 -44 20 -51 11 -7 20 -30 20 -51 0 -22 8 -39 19 -39 35 0
19 -153 -19 -180 -38 -28 -34 -61 28 -205 39 -90 35 -555 -5 -630 -28 -52 -83
-60 -83 -13 0 17 -11 27 -25 22 -14 -5 -42 0 -63 11 -32 17 -36 13 -27 -23 6
-23 3 -47 -8 -54 -12 -7 -12 -20 0 -35 36 -45 43 -142 13 -193 -16 -27 -29
-37 -29 -22 -1 22 -8 21 -38 -5 -63 -57 -89 27 -35 113 51 81 36 166 -39 233
-38 33 -69 68 -69 79 0 10 -31 38 -70 62 -38 24 -70 56 -70 72 0 15 -11 28
-25 28 -14 0 -47 5 -75 11 -48 10 -49 9 -5 -10 25 -11 45 -34 45 -50 0 -17 11
-31 23 -31 38 0 97 -63 97 -103 0 -20 9 -37 20 -37 11 0 20 -21 20 -46 0 -26
12 -63 28 -84 36 -50 -8 -102 -63 -74 -19 10 -129 25 -245 34 -200 14 -292 22
-325 27 -8 2 -15 17 -15 35 0 23 10 28 35 18 116 -49 427 -59 466 -16 36 40
40 126 6 126 -19 0 -51 15 -72 34 -29 26 -41 29 -53 9 -25 -40 -127 -50 -154
-14 -20 27 -30 28 -75 4 -39 -20 -46 -32 -28 -50 22 -22 0 -33 -50 -25 -8 1
-15 -7 -15 -18 0 -31 -34 -24 -47 11 -7 17 5 45 29 65 23 18 50 55 60 80 10
26 27 41 38 34 11 -7 20 -2 20 10 0 12 9 17 20 10 11 -7 20 3 20 21 0 18 18
37 40 43 37 10 51 45 40 96 -2 11 -7 38 -12 59 -4 21 9 67 29 101 61 104 -18
166 -224 176 -85 4 -159 0 -165 -9 -6 -10 -27 -17 -48 -17 -68 0 -77 -55 -26
-161 26 -55 51 -99 55 -99 41 0 69 28 51 50 -15 18 -13 29 9 37 21 8 31 -1 31
-28 0 -25 14 -39 39 -39 21 0 44 -9 51 -20 11 -18 -38 -28 -138 -27 -37 1 -37
0 -1 -26 59 -43 285 -8 255 39 -7 11 -2 14 10 6 47 -29 -25 -162 -126 -233
-212 -149 -283 -270 -200 -339 35 -29 40 -92 9 -111 -11 -7 -35 0 -53 14 -26
21 -34 22 -41 2 -5 -14 -17 -25 -27 -25 -26 0 -22 95 5 104 16 6 14 21 -5 53
-22 34 -22 48 -4 59 40 25 19 118 -36 162 -56 43 -60 85 -20 188 27 69 28 100
4 85 -25 -15 -42 38 -30 93 5 25 18 94 28 152 13 74 38 129 82 179 60 69 62
78 52 203 -14 185 53 301 156 267 22 -7 83 -14 137 -15z m1143 -250 c-7 -22
-4 -40 8 -40 11 0 16 -13 9 -30 -6 -16 -20 -30 -30 -30 -11 0 -14 9 -7 20 7
11 -2 20 -19 20 -31 0 -43 61 -18 87 31 30 69 12 57 -27z m-1112 -528 c18 -21
16 -30 -9 -40 -43 -16 -70 2 -56 39 14 36 35 37 65 1z m-584 -237 c-4 -36 -8
-11 -8 55 0 66 4 95 8 65 5 -30 5 -84 0 -120z m1656 -17 c19 -57 -7 -76 -42
-29 -36 49 -36 71 1 71 15 0 34 -19 41 -42z m-39 -194 c-7 -22 -26 -45 -42
-52 -36 -14 -40 69 -5 104 32 32 63 -2 47 -52z m-861 -193 c33 -2 90 -6 127
-8 86 -4 74 -46 -16 -56 -138 -15 -86 -31 65 -20 178 13 207 -9 147 -112 -18
-32 -33 -72 -33 -88 0 -16 -9 -24 -20 -17 -31 19 -23 -26 15 -85 19 -29 25
-47 12 -39 -13 8 -27 4 -31 -9 -10 -28 -116 -42 -116 -15 0 10 -22 13 -49 6
-36 -9 -62 1 -100 39 l-50 50 -36 -43 c-27 -34 -57 -44 -130 -45 l-95 0 9 86
c7 77 3 90 -41 109 -29 14 -40 28 -28 36 16 10 15 29 -1 65 -16 34 -17 70 -6
105 l19 55 67 -57 c47 -40 71 -49 77 -31 6 19 18 16 49 -11 40 -35 40 -35 14
8 -15 24 -45 47 -67 50 -21 3 -43 19 -48 34 -8 23 10 25 98 12 60 -9 135 -17
168 -19z m-355 -575 c6 17 17 19 32 7 13 -11 59 -25 103 -32 44 -7 120 -32
169 -56 106 -51 122 -51 248 4 84 36 96 37 85 9 -11 -28 -3 -31 48 -21 33 7
60 7 60 1 0 -16 -55 -68 -72 -68 -8 0 -30 -14 -49 -31 -35 -31 -31 -109 5
-109 10 0 14 7 8 16 -9 15 42 38 166 74 32 10 43 7 33 -8 -7 -12 -4 -22 7 -22
11 0 15 -14 8 -32 -6 -18 0 -39 14 -48 20 -12 18 -29 -8 -81 -35 -71 -24 -110
16 -55 27 36 139 31 187 -8 13 -11 60 -17 105 -13 242 24 -78 -230 -396 -312
-420 -109 -1163 168 -1164 433 0 35 245 -6 280 -46 l40 -48 -11 145 c-6 83 -2
145 8 145 36 0 43 66 13 125 -40 81 -38 88 13 43 32 -28 45 -31 52 -12z
m-1844 -2581 c-4 -102 -20 -221 -35 -265 -23 -69 -22 -92 3 -165 25 -69 26
-93 6 -125 -37 -58 -30 -71 14 -31 51 46 92 29 144 -60 39 -65 49 -71 107 -60
46 8 77 2 108 -24 l44 -35 -89 -266 c-49 -147 -94 -271 -99 -277 -15 -15 -230
49 -314 94 -38 20 -113 55 -166 77 -95 40 -154 122 -154 215 0 19 -32 98 -71
177 -75 152 -74 225 4 284 18 14 35 62 39 110 7 84 40 286 67 406 17 74 139
127 296 129 l104 1 -8 -185z m3916 -630 c-7 -30 -14 -66 -14 -80 0 -14 -12
-25 -26 -25 -15 0 -27 -13 -27 -29 0 -15 -16 -44 -35 -63 -33 -33 -31 -34 21
-24 36 7 53 3 48 -12 -4 -12 -36 -25 -71 -28 -91 -9 -78 -44 17 -44 75 0 79
-3 56 -40 -26 -41 -61 -41 -162 -2 -31 12 -87 22 -124 22 -42 0 -65 9 -63 25
8 52 37 75 94 75 39 0 59 10 59 30 0 17 18 48 40 70 22 22 33 40 25 40 -19 1
140 138 160 139 9 1 10 -24 2 -54z m-221 -398 c37 -8 54 -23 50 -45 -8 -41
-47 -39 -140 8 -77 38 -83 83 -9 61 24 -6 68 -17 99 -24z m-187 -26 c24 -21
55 -43 68 -48 16 -7 14 -16 -7 -30 -31 -23 -86 14 -123 82 -25 46 6 45 62 -4z
m-105 -356 c83 -104 130 -253 73 -231 -15 6 -27 17 -27 25 0 13 -16 35 -97
132 -10 12 -28 41 -40 64 -58 109 6 115 91 10z m-467 -150 c-5 -8 4 -20 20
-27 17 -6 36 -47 43 -90 10 -55 23 -77 44 -73 31 5 83 -54 64 -73 -18 -18 -98
12 -85 32 7 13 -31 17 -105 10 -89 -7 -110 -4 -87 13 17 14 30 61 31 117 4
129 19 166 56 132 15 -14 24 -33 19 -41z m1284 -335 c0 -22 -7 -40 -16 -40
-10 0 -12 -9 -5 -20 7 -11 1 -21 -14 -22 -127 -11 -188 -8 -199 9 -9 14 -23
13 -41 -2 -18 -15 -38 -16 -57 -4 -16 10 -51 19 -78 19 -34 0 -43 6 -28 21 30
30 247 50 247 23 0 -33 143 -13 164 23 23 43 27 41 27 -7z"/>
<path d="M3295 8168 c-7 -7 -2 -29 10 -49 27 -42 75 -17 75 38 -1 29 -3 29
-20 3 -13 -20 -19 -22 -20 -5 0 26 -25 33 -45 13z"/>
<path d="M3465 8111 c2 -28 5 -51 6 -51 1 0 54 -10 118 -22 93 -17 120 -16
134 5 28 45 20 51 -86 66 -57 7 -120 22 -140 33 -31 16 -36 12 -32 -31z"/>
<path d="M3631 7865 c-165 -7 -277 -66 -240 -127 9 -13 19 -55 23 -93 8 -74
66 -158 66 -96 0 20 18 31 55 31 39 1 47 6 27 18 -15 10 -21 28 -13 40 20 33
47 27 55 -12 4 -23 27 -36 70 -38 36 -2 94 -8 130 -15 95 -17 161 40 138 120
-16 56 -121 191 -141 183 -6 -2 -82 -7 -170 -11z m129 -197 l50 -30 -57 12
c-31 6 -69 2 -83 -10 -19 -16 -30 -15 -41 2 -9 15 -7 19 7 11 11 -8 27 -5 33
5 6 11 -13 23 -44 28 -47 7 -45 8 15 10 39 2 93 -11 120 -28z"/>
<path d="M3540 7541 c0 -43 147 -66 221 -34 l69 30 -90 3 c-49 2 -115 7 -145
12 -30 5 -55 0 -55 -11z"/>
<path d="M3096 6837 c-54 -55 3 -82 193 -90 183 -8 202 1 166 79 -31 64 -297
73 -359 11z"/>
<path d="M3380 6299 c0 -12 -32 -17 -80 -11 -78 10 -90 1 -82 -61 2 -13 -6
-30 -17 -37 -60 -37 44 -112 137 -98 131 19 234 88 132 88 -16 0 -30 10 -30
22 0 12 -13 17 -29 11 -17 -6 -35 -3 -42 8 -6 11 3 25 20 31 34 13 43 68 11
68 -11 0 -20 -9 -20 -21z"/>
<path d="M2870 6000 c-12 -20 70 -108 119 -127 19 -7 28 -4 21 7 -7 11 2 20
19 20 18 0 37 -13 44 -30 6 -16 19 -25 29 -19 9 6 34 2 54 -9 53 -28 261 -42
316 -21 49 18 61 -13 18 -47 -11 -8 11 -13 49 -10 58 5 71 16 85 68 8 34 34
78 56 98 22 20 40 46 40 58 -1 14 -6 15 -15 2 -47 -64 -422 -127 -547 -92 -48
14 -103 27 -122 28 -18 1 -32 10 -30 19 6 24 -123 76 -136 55z"/>
<path d="M830 3405 c-57 -10 -123 -67 -139 -120 -20 -65 12 -56 111 33 91 81
97 98 28 87z"/>
<path d="M927 3151 c-38 -27 -78 -111 -52 -111 12 0 56 53 86 105 25 43 20 43
-34 6z"/>
<path d="M995 3067 c-78 -124 -93 -158 -90 -203 5 -63 60 -7 129 129 70 137
38 197 -39 74z"/>
<path d="M1244 2999 c-24 -22 -44 -59 -44 -82 0 -45 -6 -50 106 98 31 41 -14
29 -62 -16z"/>
<path d="M1680 5575 c0 -3 18 -54 39 -113 22 -59 35 -115 30 -124 -5 -8 -1
-21 11 -28 11 -7 21 -55 21 -106 1 -52 9 -112 17 -133 36 -91 44 141 12 334
-12 74 -130 228 -130 170z"/>
<path d="M3033 5406 c-18 -18 10 -66 39 -66 15 0 22 -12 16 -28 -6 -15 -1 -34
11 -41 11 -7 21 -31 21 -52 0 -22 9 -39 20 -39 23 0 138 -226 153 -300 19 -99
30 -76 32 65 0 30 10 55 23 55 13 0 12 7 -4 17 -14 9 -24 25 -21 35 8 26 -40
109 -98 171 -29 32 -43 64 -34 78 9 16 7 20 -7 12 -12 -8 -49 12 -81 45 -33
32 -65 54 -70 48z"/>
<path d="M4280 5321 c0 -33 -1 -68 -1 -75 -1 -8 10 -18 25 -22 17 -5 16 0 -4
14 -20 15 -22 21 -5 22 30 0 34 92 5 110 -12 7 -20 -13 -20 -49z"/>
<path d="M4512 5336 c-20 -67 -38 -471 -23 -528 24 -96 42 -45 34 99 -4 81 3
213 16 293 22 142 3 238 -27 136z"/>
<path d="M1958 5220 c-2 -16 -2 -48 0 -70 1 -22 3 -65 4 -95 0 -31 9 -51 19
-44 25 15 24 171 -1 209 -17 27 -20 27 -22 0z"/>
<path d="M2090 5132 c-52 -89 -104 -352 -79 -394 20 -32 49 -19 49 22 0 22 7
40 16 40 9 0 18 43 21 95 2 52 18 143 35 202 39 138 25 149 -42 35z"/>
<path d="M4338 5147 c-12 -89 -10 -147 3 -147 40 0 62 142 24 155 -14 5 -26 1
-27 -8z"/>
<path d="M4573 5146 c-21 -20 -15 -182 7 -196 11 -7 20 -1 21 14 0 14 5 59 11
99 10 68 -10 112 -39 83z"/>
<path d="M1924 4939 c-13 -21 -24 -63 -23 -94 1 -47 5 -43 31 32 34 95 30 123
-8 62z"/>
<path d="M1525 4866 c-14 -5 -20 -18 -14 -27 14 -23 60 -204 78 -309 8 -44 31
-133 52 -197 21 -65 34 -124 29 -132 -5 -9 5 -32 22 -53 41 -52 26 118 -31
340 -23 87 -41 177 -42 200 0 65 -66 188 -94 178z"/>
<path d="M2813 4831 c-10 -27 39 -86 57 -68 13 13 -13 97 -30 97 -9 0 -21 -13
-27 -29z"/>
<path d="M3974 4792 c-8 -19 -8 -46 0 -59 25 -39 25 -81 0 -97 -16 -10 -10
-16 16 -16 38 -1 38 -3 4 -29 -25 -18 -29 -32 -14 -41 13 -8 18 -26 13 -40 -7
-17 3 -22 28 -15 28 7 36 22 28 52 -6 24 -12 63 -14 88 -2 25 -11 45 -20 45
-10 0 -13 8 -7 17 6 9 3 42 -5 74 -13 48 -18 51 -29 21z"/>
<path d="M3351 4765 c-8 -19 -3 -38 10 -42 18 -6 17 -12 -1 -23 -15 -9 0 -18
38 -24 63 -9 85 11 34 31 -18 6 -25 27 -18 52 13 51 -43 57 -63 6z"/>
<path d="M2090 4740 c-12 -20 1 -27 40 -22 11 1 6 -9 -12 -23 -17 -14 -28 -43
-24 -65 4 -22 8 -87 9 -145 2 -101 35 -152 39 -60 1 25 6 110 10 190 8 140
-19 194 -62 125z"/>
<path d="M2876 4749 c-17 -16 5 -89 26 -89 10 0 18 23 18 50 0 47 -19 64 -44
39z"/>
<path d="M5280 4618 c0 -8 -6 -30 -13 -50 -10 -23 -6 -30 10 -20 14 9 23 2 23
-18 0 -18 -9 -27 -20 -20 -11 7 -20 2 -20 -10 0 -12 -8 -18 -17 -12 -28 18
-89 -130 -63 -156 24 -24 66 22 48 52 -6 9 -1 16 11 16 11 0 21 14 21 31 0 17
8 26 19 20 19 -12 29 12 50 121 10 47 6 61 -18 61 -17 0 -31 -6 -31 -15z"/>
<path d="M3535 4571 c-35 -26 -48 -71 -20 -71 8 0 16 -24 18 -53 2 -35 -3 -44
-13 -27 -22 35 -68 -11 -75 -75 -4 -40 0 -42 35 -20 22 13 40 32 40 41 0 9 9
11 20 4 11 -7 20 -2 20 11 0 13 14 18 30 12 17 -7 30 -2 30 9 0 11 8 15 19 9
10 -6 25 -1 33 12 8 14 6 18 -7 10 -23 -14 -45 29 -45 86 0 56 -44 82 -85 52z"/>
<path d="M1193 4490 c6 -16 42 -63 80 -105 71 -76 62 -43 -21 80 -39 58 -78
75 -59 25z"/>
<path d="M2680 4485 c0 -9 15 -37 33 -63 27 -39 28 -49 5 -64 -22 -14 -21 -17
7 -18 48 0 40 116 -9 142 -20 11 -36 12 -36 3z"/>
<path d="M4849 4466 c-21 -21 -26 -37 -13 -41 29 -10 104 31 104 56 0 31 -54
22 -91 -15z"/>
<path d="M3040 4419 c0 -10 -14 -19 -31 -19 -17 0 -26 -9 -19 -20 7 -11 3 -20
-9 -20 -12 0 -21 -40 -21 -90 0 -49 8 -90 17 -90 10 0 16 -20 14 -45 -2 -25 1
-54 7 -65 6 -11 13 -33 15 -49 16 -105 28 -122 67 -101 50 27 50 56 0 120 -42
54 -52 130 -20 150 34 21 22 50 -20 50 -27 0 -40 13 -40 40 0 22 8 40 19 40
56 0 99 89 51 107 -16 7 -30 3 -30 -8z"/>
<path d="M3118 4375 c-7 -74 7 -100 46 -84 20 7 27 28 21 60 -10 50 -63 69
-67 24z"/>
<path d="M1955 4291 c-6 -31 1 -53 20 -60 20 -8 26 -2 18 17 -6 16 3 34 20 40
34 13 18 52 -22 52 -14 0 -31 -22 -36 -49z"/>
<path d="M4060 4289 c0 -20 -9 -26 -25 -16 -20 12 -20 8 0 -16 13 -17 18 -37
10 -46 -8 -8 -1 -11 15 -8 17 4 28 -4 25 -17 -2 -14 13 -34 35 -46 22 -12 40
-35 40 -52 0 -17 8 -25 19 -19 30 19 15 96 -22 106 -18 5 -38 26 -43 47 -6 21
-2 33 8 27 10 -6 18 -4 18 5 0 9 -18 28 -40 41 -34 21 -40 20 -40 -6z"/>
<path d="M5140 4278 c0 -14 -6 -19 -12 -12 -28 27 -92 -91 -97 -176 0 -11 -17
-32 -36 -46 -20 -15 -31 -35 -25 -44 6 -10 -5 -26 -24 -37 -20 -11 -30 -26
-23 -33 7 -7 32 8 56 34 24 25 54 46 67 46 13 0 24 15 24 32 0 18 12 46 25 62
13 16 27 51 30 78 3 26 18 58 33 70 20 16 22 26 5 36 -13 8 -23 3 -23 -10z"/>
<path d="M4340 4205 c20 -41 31 -84 25 -95 -6 -11 -4 -13 6 -5 24 22 26 96 2
81 -12 -8 -15 1 -7 20 8 21 -1 41 -25 53 -36 20 -36 18 -1 -54z"/>
<path d="M4810 4240 c-35 -12 -35 -14 -2 -27 55 -21 92 -15 92 14 0 29 -31 34
-90 13z"/>
<path d="M2207 4205 c10 -16 4 -25 -16 -25 -17 0 -31 -9 -31 -20 0 -11 -13
-20 -28 -20 -26 0 -52 -40 -52 -80 0 -16 52 -13 150 9 22 5 51 27 64 48 21 34
19 37 -18 28 -27 -7 -37 -3 -29 10 7 11 -3 33 -21 48 -23 18 -29 19 -19 2z"/>
<path d="M3837 3972 c7 -26 54 -78 103 -115 62 -48 92 -86 97 -125 5 -47 13
-54 52 -44 30 7 51 2 57 -15 6 -15 29 -32 52 -38 36 -10 39 -6 19 30 -19 36
-17 39 16 28 24 -8 18 3 -18 33 -30 25 -55 54 -56 65 -1 54 -142 171 -174 145
-18 -14 -27 -16 -19 -3 8 14 -6 28 -36 35 -28 7 -50 22 -50 32 0 11 -13 20
-28 20 -20 0 -25 -14 -15 -48z"/>
<path d="M2071 3901 c-6 -10 -3 -23 7 -30 24 -14 82 8 82 31 0 24 -74 23 -89
-1z"/>
<path d="M3185 3845 c-14 -4 -25 -26 -25 -47 0 -51 72 -51 85 1 11 40 -17 61
-60 46z"/>
<path d="M2403 3772 c-32 -66 -41 -155 -15 -145 12 4 19 19 16 33 -3 16 7 20
27 12 19 -7 54 5 83 28 28 22 43 40 34 41 -10 0 4 13 32 28 l49 27 -69 11
c-107 16 -135 10 -157 -35z"/>
<path d="M2764 3616 c-17 -47 -16 -60 7 -69 53 -21 83 7 74 68 -11 75 -52 75
-81 1z"/>
<path d="M3106 3438 c24 -14 53 -14 90 -1 50 18 47 20 -36 21 -72 1 -83 -3
-54 -20z"/>
<path d="M2705 3346 c-102 -13 -69 -66 40 -66 24 0 81 -41 132 -94 l89 -93
-12 78 c-13 81 -109 192 -159 186 -14 -2 -54 -7 -90 -11z"/>
<path d="M3269 3326 c-18 -38 -23 -59 -27 -103 -1 -20 -20 -25 -67 -16 -47 9
-56 7 -32 -7 28 -17 82 -17 182 -2 25 3 16 89 -13 128 -26 34 -28 34 -43 0z"/>
<path d="M5339 3116 c-23 -9 -37 -24 -31 -33 13 -21 193 -6 219 17 23 21 -137
35 -188 16z"/>
<path d="M3055 3106 c-20 -5 -31 -17 -25 -26 6 -10 2 -23 -8 -29 -11 -6 -25
-3 -32 9 -17 28 -51 25 -45 -3 8 -40 -89 -79 -165 -67 -301 47 -632 56 -591
15 13 -14 191 -18 191 -4 0 6 31 7 70 3 41 -5 64 -17 57 -29 -8 -13 11 -17 52
-11 53 8 69 1 86 -37 24 -52 55 -63 55 -19 0 31 82 58 126 41 17 -7 35 -3 42
8 7 10 29 15 49 10 20 -6 52 4 69 22 18 18 53 31 78 29 91 -8 136 2 136 32 0
19 19 30 50 30 28 0 50 7 50 15 0 17 -191 25 -245 11z"/>
<path d="M3170 2915 c-22 -13 -53 -24 -68 -24 -16 -1 -32 -12 -37 -26 -15 -45
94 -27 151 25 57 53 28 69 -46 25z"/>
<path d="M3299 2849 c-13 -16 -33 -23 -44 -16 -12 8 -15 4 -7 -9 7 -12 26 -17
42 -11 17 6 35 -3 42 -22 17 -44 -4 -62 -40 -33 -30 26 -113 -35 -137 -101
-10 -28 -2 -30 69 -14 71 16 156 50 156 63 0 2 -8 33 -18 68 -13 44 -12 66 4
71 12 4 8 13 -11 20 -17 7 -43 0 -56 -16z"/>
<path d="M1932 2809 c-6 -17 1 -35 18 -42 17 -6 30 -30 30 -53 0 -40 -2 -39
-55 8 -54 47 -54 47 -15 1 58 -69 111 -93 132 -60 15 23 17 23 18 0 0 -22 11
-21 51 6 81 53 122 4 53 -65 -36 -36 -95 -38 -73 -2 6 10 2 18 -10 18 -11 0
-22 -16 -23 -35 0 -19 -6 -24 -11 -11 -16 38 -64 7 -53 -34 10 -36 13 -37 62
-4 48 31 51 31 39 1 -11 -30 4 -33 131 -26 339 19 515 31 558 40 25 5 107 15
182 22 128 12 209 47 110 47 -54 1 -111 32 -91 51 7 8 37 14 65 14 28 0 47 5
42 10 -6 6 -1 28 11 50 15 28 14 46 -1 61 -16 16 -22 14 -22 -5 0 -15 -6 -22
-13 -15 -7 7 -31 2 -55 -11 -23 -13 -48 -22 -56 -20 -7 2 -19 -14 -26 -36 -14
-42 -304 -50 -368 -10 -15 9 -23 5 -21 -12 8 -58 -5 -67 -103 -72 -114 -5
-187 23 -170 67 11 28 -14 34 -133 32 -31 -1 -51 6 -45 15 12 20 -46 46 -70
31 -8 -5 -20 8 -26 30 -12 48 -45 52 -62 9z"/>
<path d="M5253 2785 c-35 -59 167 -278 214 -231 24 24 13 42 -84 144 -97 103
-113 114 -130 87z"/>
<path d="M5040 2545 c1 -73 25 -121 72 -142 57 -26 58 -19 13 92 -35 85 -85
115 -85 50z"/>
<path d="M4831 2420 c44 -128 115 -204 184 -196 54 6 52 9 -80 146 l-135 140
31 -90z"/>
<path d="M2417 2250 c-11 -11 -462 -84 -544 -87 -104 -5 -127 -51 -42 -83 31
-12 46 -29 37 -43 -15 -24 158 -15 374 21 178 30 364 33 373 6 5 -13 0 -24
-10 -24 -10 0 -18 -13 -18 -29 0 -16 7 -25 16 -19 10 6 17 3 17 -6 0 -17 145
-86 180 -86 11 0 20 10 20 21 0 12 15 7 34 -12 32 -32 31 -36 -5 -64 -36 -28
-37 -30 -2 -17 32 11 36 5 28 -40 l-10 -53 48 56 c36 43 42 60 22 72 -17 11
-12 16 17 17 34 0 41 -10 33 -47 -5 -31 2 -52 23 -60 20 -7 32 -1 32 18 0 16
10 29 22 29 12 0 17 -13 12 -28 -7 -17 4 -32 27 -38 43 -11 54 17 14 33 -14 5
-5 11 20 11 25 1 45 -8 45 -21 0 -13 6 -18 13 -11 7 8 25 4 40 -9 15 -12 27
-16 27 -9 0 7 18 4 41 -8 22 -12 38 -33 35 -47 -3 -13 3 -24 14 -24 11 1 18
15 15 31 -2 17 12 -4 32 -45 45 -93 73 -124 44 -48 -34 89 25 124 95 58 15
-14 60 -25 100 -25 41 0 103 -18 139 -40 44 -27 65 -31 66 -15 0 28 47 -44 49
-75 1 -29 77 -11 96 22 9 15 25 28 36 28 11 0 15 -8 9 -18 -6 -10 2 -23 18
-29 17 -6 35 -3 42 8 6 10 22 18 35 17 17 -1 17 -4 -1 -11 -14 -6 -25 -20 -25
-32 0 -12 16 -6 37 12 20 18 42 27 50 20 7 -8 13 -4 13 8 0 11 14 26 31 33 18
6 26 3 19 -8 -7 -11 7 -20 30 -20 23 0 37 -9 30 -20 -7 -11 -2 -20 11 -20 14
0 19 17 13 42 -6 23 -6 37 1 30 6 -6 25 0 42 13 26 21 28 19 17 -10 -15 -42
51 -16 79 30 12 20 8 20 -16 0 -17 -13 -37 -19 -44 -11 -16 16 4 13 -393 57
-231 26 -450 102 -633 221 -64 42 -124 74 -132 72 -8 -2 -15 14 -15 36 0 36
-21 49 -65 42 -8 -1 -15 7 -15 17 0 11 -31 51 -70 90 -38 38 -70 61 -70 52 0
-10 10 -25 21 -32 12 -7 17 -25 12 -39 -9 -24 38 -60 70 -54 7 1 11 -13 10
-32 -2 -19 8 -32 21 -29 14 2 20 -8 14 -23 -7 -17 11 -31 51 -39 34 -7 61 -24
61 -39 0 -15 24 -38 53 -52 77 -35 44 -48 -56 -22 -116 31 -211 72 -377 164
-53 28 -149 63 -167 59 -58 -14 -93 23 -93 99 0 66 -8 82 -51 98 -54 21 -156
27 -172 10z"/>
<path d="M3407 2076 c-8 -13 -3 -27 10 -32 13 -4 19 -14 15 -22 -5 -7 8 -15
29 -17 50 -3 50 38 0 70 -30 18 -43 19 -54 1z"/>
<path d="M2729 1530 c-35 -26 -36 -29 -4 -29 19 -1 34 -8 33 -16 -9 -57 5 -73
33 -36 16 21 30 30 31 20 10 -115 30 -148 92 -149 13 0 30 -10 38 -23 9 -14 5
-18 -9 -9 -13 8 -23 5 -23 -5 0 -11 18 -26 41 -33 23 -7 39 -28 37 -47 -7 -54
24 -105 75 -124 26 -10 47 -32 47 -49 0 -16 10 -30 21 -30 12 0 16 -9 8 -21
-14 -23 28 -83 50 -70 7 5 29 -18 48 -50 20 -32 46 -59 59 -60 13 0 55 -31 93
-70 38 -38 76 -69 85 -69 9 0 16 -16 16 -35 0 -34 88 -87 166 -99 30 -5 32 1
14 34 -12 22 -30 40 -41 40 -10 0 -19 14 -19 31 0 19 -9 26 -23 17 -16 -10
-20 -4 -12 16 6 17 -5 45 -27 63 -21 18 -38 29 -38 24 0 -5 -47 42 -105 104
-58 62 -139 148 -180 191 -41 42 -75 85 -75 96 0 10 -13 18 -30 18 -16 0 -46
32 -66 72 -20 39 -45 73 -55 75 -11 2 -17 9 -14 17 7 23 -87 116 -117 116 -16
1 -47 27 -69 60 -38 54 -45 57 -80 30z"/>
<path d="M2780 940 c18 -34 27 -36 61 -15 36 23 36 26 4 38 -68 27 -88 20 -65
-23z"/>
<path d="M2870 920 c-22 -9 -30 -18 -17 -19 13 0 19 -18 14 -38 -10 -38 40
-73 75 -52 9 6 12 -2 6 -19 -8 -22 8 -33 60 -43 39 -7 67 -21 61 -30 -17 -28
20 -36 45 -9 19 21 18 29 -5 38 -16 6 -29 25 -29 44 0 20 -11 28 -29 21 -17
-6 -38 3 -48 20 -14 25 -25 27 -60 9 -35 -19 -40 -18 -31 7 7 16 18 29 25 28
37 -5 43 6 16 33 -17 17 -33 29 -37 29 -3 -1 -24 -10 -46 -19z"/>
<path d="M2570 660 c-7 -11 -5 -20 4 -20 9 0 4 -8 -11 -18 -20 -12 -11 -21 30
-31 31 -8 63 -25 71 -38 10 -15 15 -11 16 12 0 19 -10 35 -21 35 -12 0 -16 9
-10 19 7 10 -6 28 -27 40 -26 14 -44 14 -52 1z"/>
<path d="M2754 653 c-14 -35 39 -61 58 -29 9 14 5 16 -12 6 -18 -11 -21 -8
-11 8 11 18 26 13 56 -19 26 -27 33 -48 19 -56 -12 -8 -1 -23 28 -36 26 -13
48 -16 48 -6 0 9 43 -4 95 -30 125 -61 248 -103 325 -111 21 -2 22 -6 5 -13
-27 -11 -35 -67 -9 -67 9 0 25 9 36 20 13 13 21 6 23 -20 2 -37 -58 -90 -79
-69 -5 5 -117 13 -248 18 -174 6 -269 20 -353 50 -64 23 -138 43 -165 46 -28
2 -50 11 -50 19 0 9 -14 16 -31 16 -17 0 -26 8 -20 19 13 20 -21 47 -67 54
-15 2 -33 12 -40 22 -37 54 -232 110 -232 67 0 -16 15 -30 33 -33 36 -5 130
-91 123 -112 -3 -7 29 -29 70 -48 41 -20 83 -47 94 -61 11 -14 61 -36 110 -49
227 -61 350 -73 676 -64 297 8 347 4 454 -31 66 -22 161 -46 210 -52 303 -38
515 -70 545 -82 19 -8 35 -7 34 3 -1 36 -57 89 -97 92 -23 2 -42 12 -42 23 0
10 -6 13 -13 6 -7 -8 -25 2 -39 21 -15 19 -27 25 -27 13 -1 -12 -14 -21 -31
-21 -26 0 -37 16 -34 53 0 6 -30 9 -68 7 -37 -1 -73 5 -78 14 -6 9 -39 12 -73
8 -35 -4 -73 -1 -85 6 -12 8 -35 15 -52 15 -16 0 -41 8 -55 17 -14 8 -43 10
-65 3 -28 -9 -40 -4 -40 18 0 20 12 27 35 19 30 -9 30 -7 5 11 -42 30 -74 27
-88 -9 -6 -18 -3 -26 8 -19 11 7 20 3 20 -9 0 -11 -13 -21 -28 -21 -16 0 -34
-11 -40 -25 -6 -14 -7 -5 0 20 12 51 -7 59 -40 15 -16 -21 -31 -24 -52 -9 -26
17 -25 23 6 47 27 21 30 31 10 38 -17 7 -15 11 7 12 19 1 38 -9 43 -23 7 -20
15 -20 36 1 23 21 20 27 -17 37 -25 6 -39 21 -32 32 7 12 4 16 -7 9 -20 -13
-204 30 -249 58 -15 9 -38 19 -52 21 -14 2 -70 26 -125 53 -55 28 -100 41
-100 31 0 -11 -15 -5 -33 13 -17 18 -44 28 -59 22 -15 -6 -34 2 -42 17 -25 43
-118 60 -132 24z"/>
<path d="M4239 421 c16 -10 36 -14 45 -8 9 5 16 -5 16 -22 0 -17 14 -31 30
-31 38 0 38 9 -1 49 -18 17 -51 31 -75 31 -35 -1 -38 -5 -15 -19z"/>
<path d="M1980 332 c0 -28 7 -52 16 -52 22 0 64 44 64 67 0 11 -6 14 -13 7 -7
-8 -25 -4 -40 9 -21 17 -27 11 -27 -31z"/>
<path d="M2032 265 c-19 -19 -14 -49 6 -36 10 6 23 -3 30 -20 7 -19 3 -26 -10
-18 -13 8 -19 0 -15 -21 11 -54 97 -80 97 -29 0 21 -9 39 -20 39 -11 0 -20 17
-20 38 0 38 -46 70 -68 47z"/>
<path d="M2130 79 c-38 -16 -38 -16 4 -18 24 0 50 -12 58 -24 10 -16 4 -20
-19 -11 -18 7 -33 4 -33 -7 0 -10 38 -18 85 -17 47 2 67 7 45 12 -22 5 -53 26
-70 46 -21 25 -41 31 -70 19z"/>
</g>
</svg>
