<?xml version="1.0" standalone="no"?>
<!DOCTYPE svg PUBLIC "-//W3C//DTD SVG 20010904//EN"
 "http://www.w3.org/TR/2001/REC-SVG-20010904/DTD/svg10.dtd">
<svg version="1.0" xmlns="http://www.w3.org/2000/svg"
 width="300.000000pt" height="451.000000pt" viewBox="0 0 300.000000 451.000000"
 preserveAspectRatio="xMidYMid meet">
<metadata>
Created by potrace 1.10, written by Peter Selinger 2001-2011
</metadata>
<g transform="translate(0.000000,451.000000) scale(0.100000,-0.100000)"
fill="#000000" stroke="none">
<path d="M1636 4491 c-3 -4 -31 -11 -62 -15 -39 -4 -66 -14 -86 -31 -16 -14
-36 -25 -44 -25 -8 0 -14 -4 -14 -10 0 -5 7 -10 15 -10 8 0 15 -7 15 -15 0 -8
-8 -15 -18 -15 -18 0 -52 -29 -52 -43 0 -4 -13 -20 -30 -35 -21 -21 -30 -39
-30 -61 0 -17 -6 -42 -14 -54 -18 -28 -25 -75 -31 -211 -4 -97 -7 -110 -26
-124 -21 -14 -21 -21 -17 -139 4 -105 8 -127 25 -146 11 -12 28 -51 38 -86 10
-35 33 -82 49 -105 29 -38 31 -47 31 -121 0 -101 -15 -128 -82 -148 -27 -8
-64 -24 -83 -35 -57 -33 -270 -108 -342 -121 -93 -16 -166 -52 -242 -119 -32
-29 -100 -144 -120 -202 -10 -30 -22 -64 -26 -75 -10 -23 -37 -146 -50 -225
-12 -80 -30 -162 -40 -185 -4 -11 -22 -50 -39 -86 -17 -36 -31 -74 -31 -83 0
-47 -43 -227 -65 -273 -22 -45 -24 -58 -16 -94 5 -23 7 -70 4 -104 -3 -42 0
-81 11 -118 9 -30 16 -75 16 -100 0 -42 4 -49 43 -80 66 -54 234 -122 317
-129 l35 -3 8 -130 c6 -88 5 -153 -3 -200 -6 -38 -16 -99 -21 -135 -5 -36 -14
-95 -19 -132 -6 -37 -10 -93 -10 -125 -1 -57 -19 -145 -33 -159 -4 -4 -7 -15
-7 -25 0 -10 -10 -39 -22 -63 -18 -38 -20 -49 -10 -71 16 -36 46 -34 38 2 -4
19 4 54 24 106 36 94 40 110 45 212 3 44 7 91 10 105 13 61 15 79 19 148 3 39
9 78 13 85 12 18 30 177 21 177 -4 0 -8 9 -8 19 0 11 -4 22 -9 25 -4 3 -2 38
4 78 7 40 12 73 12 74 -1 0 -17 12 -35 27 -20 16 -46 27 -63 27 -17 0 -51 9
-77 20 -26 11 -56 21 -67 23 -30 4 -115 47 -115 58 0 6 -4 8 -9 4 -19 -11 -48
43 -50 96 -1 28 -4 56 -7 60 -3 5 0 9 6 9 7 0 9 9 5 23 -5 19 -4 20 5 4 6 -9
8 -22 4 -29 -5 -7 -2 -9 8 -6 8 4 21 -2 29 -13 7 -10 19 -19 26 -19 7 0 13 -4
13 -9 0 -9 30 -22 60 -26 26 -3 65 -22 80 -40 9 -10 22 -14 37 -10 13 3 23 1
23 -4 0 -5 12 -6 27 -2 16 5 27 14 25 21 -2 9 5 11 25 7 27 -5 28 -4 29 32 2
70 24 141 44 141 14 0 18 6 15 27 -2 16 1 35 6 44 6 11 4 21 -5 28 -8 7 -12
21 -9 31 3 13 0 20 -8 21 -35 3 -99 30 -99 41 0 4 -7 8 -16 8 -8 0 -13 4 -10
9 3 5 -6 12 -20 15 -15 4 -24 10 -20 13 3 3 -2 12 -12 20 -15 13 -15 13 7 7
24 -6 24 -6 -5 21 -29 28 -29 28 -4 21 14 -3 39 -9 55 -12 29 -5 29 -5 11 10
-11 9 -27 16 -37 16 -32 0 -47 41 -28 75 10 16 10 169 0 184 -13 20 -23 -17
-27 -108 -2 -42 -5 -83 -7 -91 -9 -39 -19 -60 -30 -60 -7 0 -5 -5 5 -10 20
-12 35 -87 19 -103 -19 -19 -12 -31 8 -13 27 24 54 13 75 -30 15 -33 19 -36
50 -30 24 5 39 1 55 -11 l22 -18 -45 -133 c-24 -73 -46 -136 -49 -139 -8 -7
-115 25 -157 47 -19 10 -57 28 -83 39 -50 21 -66 45 -82 121 -4 19 -19 52 -33
74 -32 51 -34 107 -6 138 12 13 24 43 28 68 10 76 36 211 41 220 10 16 99 40
147 40 54 0 65 19 23 38 -33 15 -55 16 -35 1 11 -8 7 -9 -19 -5 -19 4 -36 8
-39 10 -9 9 -3 54 17 131 11 44 21 94 21 112 0 17 5 35 10 38 6 3 10 1 10 -4
0 -6 4 -11 9 -11 6 0 6 12 -1 30 -13 38 -4 64 20 55 14 -5 15 -4 5 6 -15 15
-17 79 -3 79 6 0 10 14 10 32 0 25 3 29 12 20 21 -21 26 -13 21 32 -3 26 -1
46 6 50 6 4 11 16 11 27 0 27 42 90 58 84 7 -3 12 4 12 18 0 16 14 31 47 52
85 54 128 74 155 75 15 0 37 4 50 9 26 10 125 34 149 36 8 0 29 10 45 22 16
11 45 24 64 28 19 4 37 11 40 15 3 4 14 10 25 14 17 5 29 -4 59 -44 56 -74
206 -156 324 -177 55 -10 222 -7 252 4 8 3 23 8 32 9 31 6 143 63 163 82 11
11 28 29 38 41 13 17 21 19 36 12 10 -6 21 -8 24 -4 4 3 14 0 23 -7 8 -8 23
-15 32 -16 37 -6 153 -50 171 -66 11 -9 33 -24 48 -32 15 -8 41 -28 57 -45 17
-17 35 -31 40 -31 15 0 98 -79 119 -112 9 -15 14 -35 10 -44 -4 -11 -3 -15 4
-11 22 14 61 -78 66 -153 3 -39 11 -78 19 -87 8 -10 14 -50 15 -112 1 -53 3
-98 4 -101 1 -3 3 -9 4 -15 13 -86 18 -105 26 -110 12 -8 -7 -43 -35 -67 -23
-19 -15 -24 13 -8 17 9 18 5 17 -45 0 -30 -4 -56 -8 -56 -28 -5 -34 -4 -45 4
-7 5 -22 7 -33 4 -13 -3 -21 1 -25 14 -4 10 -11 19 -17 19 -6 0 -9 -3 -5 -6 9
-10 -21 -36 -34 -29 -6 4 -13 -2 -16 -14 -3 -11 -8 -19 -12 -17 -4 3 -6 -8 -5
-22 0 -15 -2 -29 -7 -32 -4 -3 -8 -25 -10 -50 -1 -25 -7 -51 -13 -59 -15 -19
-16 -41 -3 -41 7 0 6 -4 -2 -9 -8 -6 -15 -28 -17 -53 l-2 -43 -45 -5 c-71 -9
-70 -23 2 -18 l63 4 -26 -19 c-14 -10 -26 -25 -26 -32 0 -19 -27 -26 -40 -9
-19 21 -27 17 -32 -16 -3 -20 0 -30 9 -30 7 0 13 -4 13 -10 0 -5 -17 -7 -37
-4 -48 6 -121 -24 -125 -51 -2 -16 -13 -21 -48 -26 l-45 -6 42 -1 c36 -2 45
-7 56 -29 8 -16 12 -33 10 -40 -2 -6 1 -14 6 -18 6 -3 11 -19 11 -35 0 -16 4
-31 9 -34 5 -4 16 -26 24 -50 11 -33 12 -46 4 -49 -7 -2 0 -3 16 -1 18 2 27
-1 27 -10 0 -11 8 -12 37 -6 20 5 54 6 75 4 21 -3 38 -2 38 4 0 5 19 15 42 23
23 7 54 25 68 39 14 14 38 34 53 44 14 11 24 23 21 28 -3 4 -1 8 4 8 6 0 20
11 33 25 13 13 30 25 36 25 7 0 18 9 25 20 17 27 28 25 28 -3 0 -25 -82 -190
-106 -214 -8 -8 -26 -30 -40 -48 -36 -48 -118 -88 -165 -82 -31 4 -42 0 -74
-28 -35 -32 -36 -36 -27 -67 17 -52 0 -186 -24 -195 -10 -4 -12 -12 -8 -27 4
-11 8 -82 9 -156 1 -93 6 -143 15 -160 8 -14 13 -37 11 -51 -1 -15 4 -42 12
-60 15 -37 15 -38 -41 -95 -32 -32 -32 -34 -11 -34 14 0 39 17 65 45 l43 44
-19 48 c-31 80 -43 181 -38 309 3 66 11 133 18 149 8 18 13 74 13 139 l1 108
48 -6 c68 -9 137 25 205 102 68 78 108 148 139 240 l24 76 -32 45 -32 45 2
170 c2 199 -13 256 -20 79 -3 -65 -11 -140 -18 -166 -12 -44 -11 -50 9 -71 31
-33 27 -73 -10 -105 -18 -14 -66 -58 -108 -97 -42 -39 -87 -77 -101 -84 -28
-15 -191 -52 -198 -45 -6 6 -91 258 -92 272 0 16 91 35 106 22 21 -17 84 16
84 43 0 15 18 39 52 70 53 47 55 57 14 71 -6 2 -3 30 7 68 9 35 24 102 33 149
10 47 20 88 23 91 8 9 147 -26 175 -44 l22 -15 -2 138 c0 75 -5 144 -10 151
-5 8 -12 68 -15 134 -7 129 -42 344 -57 354 -6 3 -24 36 -41 72 -37 77 -82
134 -121 154 -16 8 -43 29 -62 46 -18 17 -53 42 -78 56 -25 15 -54 34 -65 43
-11 9 -49 24 -86 33 -36 8 -94 29 -129 46 -35 17 -65 31 -67 31 -2 0 -3 -10
-3 -21 0 -49 -110 -120 -238 -154 -198 -51 -494 46 -568 187 -20 39 -18 47 15
46 38 -1 89 36 97 70 3 15 10 38 15 52 6 16 5 38 -1 60 -5 19 -10 36 -10 37 0
9 26 -1 58 -22 21 -14 62 -32 91 -41 47 -14 56 -14 68 -1 13 13 12 14 -10 10
-14 -3 -28 0 -31 6 -4 5 -13 8 -20 5 -7 -3 -19 2 -26 11 -7 8 -18 15 -24 15
-20 0 -97 76 -99 98 -1 12 -7 22 -14 22 -19 0 -16 27 5 40 14 8 12 9 -10 4
-30 -6 -51 17 -64 71 -4 17 -13 39 -19 50 -27 43 2 341 39 413 8 16 22 34 30
41 9 7 13 18 10 23 -3 5 -14 2 -25 -8 -23 -21 -27 -18 -29 26 -3 43 15 90 34
90 8 0 24 20 36 45 25 51 44 60 100 45 27 -7 46 -8 58 -1 14 9 13 10 -10 11
-15 0 -29 3 -31 8 -8 12 -90 7 -115 -7 l-23 -12 23 40 c18 32 27 39 45 35 18
-5 21 -2 16 14 -2 11 3 32 13 47 15 23 22 26 58 21 23 -3 34 -3 26 1 -22 9
-40 30 -33 37 4 3 24 6 45 6 21 0 38 4 38 10 0 14 48 24 63 12 6 -5 27 -9 46
-8 23 1 35 -4 38 -14 6 -22 73 -64 105 -66 35 -2 77 -29 87 -57 14 -36 41 -53
89 -56 7 -1 11 -5 7 -11 -3 -5 3 -18 15 -30 23 -23 26 -46 8 -54 -7 -3 1 -4
19 -2 35 4 48 -17 31 -48 -6 -10 -8 -20 -5 -22 8 -8 37 8 31 17 -2 5 0 17 5
28 8 15 5 26 -14 52 -13 19 -31 48 -39 64 -14 26 -55 55 -79 54 -13 0 -36 28
-47 55 -6 18 -21 28 -50 36 -43 11 -91 37 -152 80 -37 27 -121 40 -132 21z
m-361 -750 c2 -44 0 -81 -5 -81 -18 0 -26 79 -14 139 10 47 14 32 19 -58z m5
-123 c0 -5 -4 -8 -10 -8 -5 0 -10 10 -10 23 0 18 2 19 10 7 5 -8 10 -18 10
-22z"/>
<path d="M1680 4405 c13 -14 27 -25 32 -25 5 0 1 11 -8 25 -9 14 -23 25 -32
25 -12 0 -10 -6 8 -25z"/>
<path d="M1716 4262 c-3 -5 -18 -7 -35 -4 -16 2 -37 -1 -48 -7 -10 -6 -12 -11
-5 -11 20 0 14 -18 -9 -25 -11 -4 -18 -9 -15 -12 2 -3 21 0 40 7 20 6 63 12
96 13 33 1 60 4 60 8 0 4 17 3 37 -2 34 -7 53 -5 42 5 -9 9 -109 23 -109 15 0
-5 -4 -9 -10 -9 -5 0 -10 7 -10 15 0 16 -25 21 -34 7z"/>
<path d="M1864 4261 c4 -6 14 -11 22 -11 8 0 14 -5 14 -11 0 -5 4 -8 9 -5 5 4
12 0 14 -6 3 -7 6 -8 6 -3 1 19 -14 33 -43 41 -21 5 -27 4 -22 -5z"/>
<path d="M1995 4190 c-9 -14 5 -73 19 -82 6 -4 12 -28 12 -53 1 -34 7 -50 24
-65 13 -11 20 -20 15 -20 -4 0 -2 -6 4 -14 7 -8 8 -17 3 -20 -5 -3 -7 -18 -4
-32 8 -41 -11 -22 -44 43 -17 32 -30 50 -32 40 -2 -9 3 -26 11 -39 16 -26 32
-93 28 -122 -2 -12 1 -16 10 -10 9 5 10 2 4 -12 -5 -10 -8 -45 -7 -76 2 -31
-2 -59 -8 -63 -5 -3 -10 -28 -10 -55 0 -55 -13 -98 -36 -114 -8 -6 -16 -21
-18 -33 -3 -12 -19 -44 -38 -72 -78 -118 -79 -121 -58 -121 17 0 19 -7 16 -59
-2 -42 1 -58 10 -54 7 2 14 -9 18 -30 7 -38 64 -95 114 -116 58 -24 56 -4 -3
35 -74 48 -96 90 -103 191 -4 65 -2 77 20 111 14 20 33 59 43 85 10 27 26 51
34 54 59 18 79 46 92 128 4 28 13 71 20 97 14 53 8 68 -17 48 -11 -10 -14 -23
-9 -46 4 -22 1 -37 -9 -47 -8 -8 -12 -23 -10 -35 3 -11 1 -23 -4 -26 -6 -3 -8
-15 -5 -25 3 -13 -2 -21 -17 -26 -21 -7 -45 4 -24 12 6 2 9 16 6 32 -2 17 3
34 13 45 11 11 15 25 11 41 -10 38 4 75 30 85 13 5 24 14 24 20 0 6 -4 9 -9 6
-10 -6 -7 31 11 159 7 44 11 88 9 99 -2 12 1 16 10 11 8 -6 10 -4 4 5 -6 10
-11 9 -21 -5 -11 -15 -16 -16 -29 -5 -19 16 -19 44 0 60 22 18 12 23 -19 9
-24 -11 -28 -10 -44 12 -9 13 -17 30 -19 37 -2 20 -10 25 -18 12z m90 -183 c7
-27 7 -28 -14 -15 -11 7 -21 20 -21 30 0 9 -3 24 -7 34 -6 16 -5 16 14 -1 12
-11 25 -33 28 -48z"/>
<path d="M1470 3939 c-17 -11 -43 -18 -57 -17 -14 2 -28 -2 -30 -8 -2 -7 22
-9 73 -6 78 4 129 -8 150 -37 10 -12 13 -12 23 7 14 27 14 32 -3 32 -8 0 -18
9 -21 20 -4 11 -10 18 -15 15 -5 -3 -27 -1 -49 4 -32 7 -46 5 -71 -10z"/>
<path d="M1880 3930 c-14 -4 -54 -6 -88 -4 -61 3 -89 -9 -61 -27 10 -6 8 -9
-8 -9 -26 0 -27 -2 -11 -46 l12 -33 26 19 c14 10 42 21 61 23 18 2 8 3 -23 2
-32 -2 -58 1 -58 6 0 14 44 21 105 17 39 -2 55 1 55 10 0 6 -5 12 -12 12 -16
0 -1 13 18 16 8 1 19 -8 24 -20 4 -12 15 -28 24 -35 9 -7 16 -22 16 -32 0 -11
4 -19 10 -19 6 0 6 10 -1 28 -6 15 -10 28 -9 30 1 2 -11 18 -27 36 -23 28 -32
33 -53 26z"/>
<path d="M1478 3883 c12 -2 30 -2 40 0 9 3 -1 5 -23 4 -22 0 -30 -2 -17 -4z"/>
<path d="M1418 3873 c-24 -6 -23 -19 4 -37 28 -20 44 -21 29 -2 -9 11 -9 15 1
19 11 4 10 6 0 6 -7 1 -10 6 -7 11 6 10 2 11 -27 3z"/>
<path d="M1556 3869 c3 -6 -13 -8 -38 -7 -38 3 -43 0 -46 -19 -3 -19 1 -23 22
-23 14 0 29 7 34 16 8 15 11 15 35 -1 15 -9 25 -21 22 -25 -3 -4 8 -16 23 -26
26 -17 26 -17 12 0 -8 10 -14 32 -15 49 0 25 -5 32 -28 38 -16 4 -25 4 -21 -2z
m34 -24 c7 -8 8 -15 2 -15 -5 0 -15 7 -22 15 -7 8 -8 15 -2 15 5 0 15 -7 22
-15z"/>
<path d="M1875 3840 c12 -4 27 -15 34 -24 11 -13 6 -13 -30 4 -51 23 -78 25
-114 8 -24 -11 -34 -28 -16 -28 5 0 18 -3 28 -6 14 -4 15 -4 4 4 -7 5 -10 15
-7 21 11 16 26 13 26 -5 0 -14 7 -16 40 -11 23 3 40 1 40 -5 0 -12 52 -6 57 7
3 11 -51 45 -70 44 -7 0 -3 -4 8 -9z"/>
<path d="M1447 3783 c22 -17 43 -16 84 1 34 15 33 15 -33 13 -57 -2 -65 -4
-51 -14z"/>
<path d="M1785 3761 c18 -18 83 -19 111 -2 10 7 12 11 4 8 -8 -2 -41 -1 -73 3
-52 5 -56 5 -42 -9z"/>
<path d="M1506 3678 c-9 -12 -16 -19 -16 -15 0 4 -18 -10 -40 -32 -26 -26 -40
-48 -40 -65 0 -14 4 -26 9 -26 15 0 20 -27 11 -59 -7 -26 -5 -32 17 -46 24
-16 24 -16 14 4 -16 28 -14 81 2 81 8 0 22 -9 32 -20 10 -12 25 -18 33 -15 8
3 24 -3 35 -12 19 -18 20 -17 6 4 -7 12 -22 23 -33 25 -11 2 -22 9 -24 17 -4
11 5 13 49 6 30 -4 82 -8 117 -10 90 -3 102 -22 21 -31 -24 -3 -46 -8 -49 -10
-7 -8 102 -2 126 7 32 11 48 -4 41 -41 -5 -23 -3 -30 6 -27 17 5 16 99 -2 105
-9 3 -11 0 -6 -8 6 -9 1 -10 -16 -5 -13 4 -28 11 -34 15 -10 8 -194 22 -253
20 -19 0 -42 2 -52 5 -17 5 -17 7 1 45 10 21 23 41 28 45 18 10 53 65 42 65
-5 0 -17 -10 -25 -22z"/>
<path d="M1768 3666 c12 -16 22 -35 22 -42 0 -7 9 -18 20 -24 11 -6 20 -16 20
-22 0 -7 -5 -6 -15 2 -9 7 -18 10 -21 8 -6 -6 20 -34 36 -40 6 -2 12 -12 14
-23 1 -10 9 -21 16 -23 10 -4 12 5 7 37 -5 41 -51 105 -101 141 -19 13 -19 12
2 -14z"/>
<path d="M1558 3643 c-25 -6 -22 -20 5 -25 35 -7 50 1 36 18 -6 8 -14 13 -18
13 -3 -1 -14 -3 -23 -6z"/>
<path d="M1661 3636 c-13 -15 -5 -26 21 -26 13 0 18 -7 18 -26 0 -19 4 -25 18
-22 9 2 17 11 17 20 0 9 4 20 8 24 13 13 7 25 -10 23 -10 -2 -28 2 -39 9 -17
9 -24 9 -33 -2z"/>
<path d="M1510 3602 c0 -8 54 -38 85 -46 11 -3 27 -1 35 4 13 9 13 11 0 20 -8
5 -25 10 -37 10 -30 0 -34 1 -60 11 -13 5 -23 5 -23 1z"/>
<path d="M1650 3582 c0 -24 18 -38 31 -25 6 6 2 16 -11 28 -19 18 -20 18 -20
-3z"/>
<path d="M1559 3424 c-11 -14 -1 -44 15 -44 6 -1 41 -3 78 -6 40 -3 69 -1 73
6 3 6 0 7 -9 4 -11 -4 -16 0 -16 15 0 12 -6 21 -12 21 -10 0 -10 2 0 9 8 4
-15 7 -53 7 -37 -1 -71 -6 -76 -12z"/>
<path d="M1610 3325 c-12 -14 -11 -18 1 -26 28 -17 40 -1 20 29 -6 10 -11 10
-21 -3z"/>
<path d="M782 2683 c9 -10 28 -42 42 -70 32 -64 42 -70 17 -9 -26 58 -43 84
-60 91 -12 5 -12 3 1 -12z"/>
<path d="M890 2605 c0 -11 5 -27 10 -35 8 -12 10 -12 10 5 0 11 -5 27 -10 35
-8 12 -10 12 -10 -5z"/>
<path d="M2292 2540 c0 -19 2 -27 5 -17 2 9 2 25 0 35 -3 9 -5 1 -5 -18z"/>
<path d="M678 2364 c6 -12 27 -86 46 -165 19 -79 41 -171 49 -204 l16 -60 -6
55 c-5 59 -48 252 -63 285 -5 11 -12 34 -15 52 -3 17 -13 38 -22 45 -14 12
-15 11 -5 -8z"/>
<path d="M887 2280 c-3 -11 -3 -73 1 -138 l6 -117 13 65 c14 75 17 157 3 125
-5 -14 -8 -6 -8 28 0 54 -7 69 -15 37z"/>
<path d="M2300 2198 c0 -50 3 -88 7 -84 10 10 10 176 1 176 -5 0 -8 -41 -8
-92z"/>
<path d="M2264 1870 c6 -57 4 -74 -11 -97 -10 -15 -13 -24 -6 -20 7 5 14 -4
18 -24 8 -37 7 -39 -28 -32 -22 4 -25 8 -16 19 7 8 10 17 7 20 -3 2 -17 -11
-31 -30 -29 -38 -61 -46 -184 -47 -71 -1 -151 23 -167 50 -11 17 -49 14 -43
-3 8 -20 -28 -50 -53 -43 -11 3 -20 1 -20 -4 0 -5 11 -9 23 -9 13 0 33 -8 45
-17 12 -10 30 -25 41 -34 12 -8 27 -33 34 -55 9 -25 21 -40 33 -41 14 -2 15
-1 4 5 -8 4 -16 12 -17 17 -1 6 -5 18 -8 28 -4 10 -3 17 4 17 6 0 11 10 11 21
0 18 -5 20 -26 16 -21 -4 -25 -1 -21 13 3 13 -1 16 -18 12 -27 -5 -36 7 -28
36 5 20 43 33 43 14 0 -15 77 -39 145 -45 64 -6 157 5 231 28 17 5 25 -1 43
-35 25 -49 28 -118 5 -127 -14 -5 -39 -52 -32 -58 2 -2 19 -6 38 -10 l35 -7
-22 20 -23 19 22 28 c25 32 26 71 3 149 -10 32 -15 94 -15 173 0 85 -4 123
-11 123 -8 0 -10 -20 -5 -70z"/>
<path d="M849 1831 l-26 -98 33 -27 c19 -15 35 -22 39 -16 9 14 48 13 63 -2 9
-9 15 -9 24 0 19 19 -7 32 -64 32 -60 0 -74 20 -57 83 22 80 26 105 20 115 -4
6 -18 -33 -32 -87z"/>
<path d="M2699 1910 c-17 -14 -20 -19 -9 -20 8 0 21 9 28 20 15 25 11 25 -19
0z"/>
<path d="M753 1810 c4 -14 7 -40 7 -57 0 -18 4 -33 8 -33 10 0 -1 97 -13 107
-4 5 -5 -3 -2 -17z"/>
<path d="M1104 1665 c25 -19 107 -19 132 0 17 13 16 14 -16 5 -23 -7 -36 -7
-38 0 -2 5 -25 10 -50 10 -44 -1 -46 -2 -28 -15z"/>
<path d="M1333 1658 c-2 -5 13 -8 33 -8 28 0 46 -8 67 -27 22 -21 27 -23 19
-8 -18 33 -46 51 -81 50 -18 0 -35 -3 -38 -7z"/>
<path d="M1743 1610 c3 -14 10 -38 16 -55 6 -16 16 -49 21 -72 6 -24 15 -43
20 -43 10 0 8 13 -9 75 -13 49 -55 133 -48 95z"/>
<path d="M1570 1551 c8 -6 28 -11 44 -11 39 0 31 6 -19 14 -29 5 -36 4 -25 -3z"/>
<path d="M632 1500 c-7 -11 -9 -20 -4 -20 4 0 13 9 20 20 7 11 9 20 4 20 -4 0
-13 -9 -20 -20z"/>
<path d="M1258 1503 c12 -2 30 -2 40 0 9 3 -1 5 -23 4 -22 0 -30 -2 -17 -4z"/>
<path d="M1321 1496 c2 -2 22 -6 44 -9 28 -5 34 -4 20 3 -19 8 -73 14 -64 6z"/>
<path d="M1890 1471 c0 -10 -8 -22 -17 -25 -15 -6 -15 -8 -3 -16 12 -8 11 -10
-5 -10 -12 0 -26 5 -33 12 -9 9 -12 8 -12 -5 0 -9 8 -20 18 -25 23 -13 62 3
62 25 0 12 3 14 10 7 7 -7 8 -19 1 -36 -9 -25 -9 -25 24 -18 40 9 47 5 64 -37
8 -18 18 -33 23 -33 6 0 3 11 -6 25 -15 24 -15 25 6 29 13 3 49 7 81 10 32 2
65 10 73 16 7 7 29 10 47 8 29 -3 33 -1 29 14 -7 29 -20 31 -67 8 -25 -12 -59
-23 -77 -25 -18 -1 -41 -6 -51 -10 -38 -16 -146 32 -131 57 3 5 -2 8 -10 8
-17 0 -17 20 -1 32 6 4 2 8 -7 8 -11 0 -18 -8 -18 -19z"/>
<path d="M2346 1445 c11 -8 32 -15 49 -15 40 0 20 16 -29 23 -35 6 -37 5 -20
-8z"/>
<path d="M1786 1345 c-43 -19 -89 -43 -101 -55 -11 -11 -25 -20 -30 -20 -5 0
-16 -6 -24 -13 -9 -8 -47 -27 -86 -42 -90 -37 -98 -44 -40 -38 34 4 49 2 58
-10 14 -18 112 -51 130 -44 6 3 2 6 -10 6 -13 1 -23 6 -23 12 0 5 -4 8 -9 5
-5 -3 -12 1 -15 10 -3 9 -13 14 -20 11 -8 -3 -17 2 -21 11 -5 14 -7 14 -15 2
-8 -13 -10 -12 -10 3 0 18 54 57 80 57 8 0 33 18 55 40 22 21 46 39 53 40 7 0
25 6 41 14 21 11 38 12 71 5 44 -10 67 -5 34 8 -10 4 -23 13 -29 20 -8 10 -26
6 -89 -22z"/>
<path d="M1939 1284 c-12 -15 -11 -16 8 -10 13 4 27 1 37 -9 19 -20 21 -7 2
18 -17 21 -30 22 -47 1z"/>
<path d="M1160 1268 c0 -4 16 -8 35 -8 19 0 35 2 35 4 0 2 -16 6 -35 8 -19 2
-35 0 -35 -4z"/>
<path d="M2381 1263 c19 -23 62 -72 94 -108 26 -30 26 -30 -2 10 -45 65 -87
115 -97 115 -5 0 -2 -8 5 -17z"/>
<path d="M2120 1255 c-14 -8 -36 -15 -50 -16 l-25 -1 25 -7 c14 -4 27 -4 30 0
3 4 21 14 40 22 19 9 28 16 20 16 -8 0 -26 -6 -40 -14z"/>
<path d="M2237 1124 c6 -16 33 -27 33 -14 0 6 -5 10 -11 10 -5 0 -8 4 -5 8 3
5 -1 9 -8 9 -8 0 -12 -6 -9 -13z"/>
<path d="M1276 1112 c12 -9 26 -26 33 -37 11 -20 11 -20 8 0 -4 29 -14 42 -39
48 l-23 6 21 -17z"/>
<path d="M1875 840 c11 -5 27 -9 35 -9 9 0 8 4 -5 9 -11 5 -27 9 -35 9 -9 0
-8 -4 5 -9z"/>
</g>
</svg>
