 <svg  version="1.0" xmlns="http://www.w3.org/2000/svg"  width="900.000000pt" height="1353.000000pt" viewBox="0 0 900.000000 1353.000000"  preserveAspectRatio="xMidYMid meet">  <g transform="translate(0.000000,1353.000000) scale(0.100000,-0.100000)" fill="#ffffff" stroke="none"> <path d="M4899 13464 c-15 -41 -25 -45 -115 -38 -64 5 -87 3 -112 -10 -17 -9 -53 -16 -81 -16 -46 0 -52 -3 -110 -59 -51 -50 -71 -61 -126 -76 -55 -15 -65 -21 -65 -40 0 -17 8 -25 27 -30 41 -10 53 -24 53 -61 0 -34 0 -34 -45 -34 -82 0 -161 -64 -167 -135 -3 -35 -8 -42 -40 -57 -20 -10 -50 -37 -66 -60 -17 -24 -39 -51 -50 -60 -18 -14 -20 -25 -15 -71 9 -85 -4 -142 -38 -176 -37 -38 -59 -89 -59 -139 0 -22 -6 -55 -14 -73 -19 -47 -37 -263 -24 -299 12 -35 6 -184 -14 -347 -15 -116 -17 -124 -47 -152 -17 -16 -44 -34 -59 -39 l-27 -9 0 -124 c0 -200 14 -478 25 -499 5 -10 10 -45 10 -77 0 -58 0 -58 65 -126 57 -60 65 -73 65 -107 0 -38 38 -176 65 -235 7 -16 19 -49 26 -72 6 -23 27 -63 45 -89 19 -26 34 -53 34 -61 0 -7 20 -33 44 -59 66 -68 76 -109 71 -294 -4 -144 -21 -279 -40 -311 -56 -94 -129 -136 -285 -166 -28 -6 -89 -34 -135 -63 -16 -11 -50 -28 -75 -40 -24 -11 -51 -27 -60 -34 -17 -14 -152 -65 -245 -92 -33 -9 -88 -30 -123 -46 -34 -15 -68 -28 -75 -28 -6 0 -39 -13 -72 -28 -33 -15 -87 -36 -120 -46 -33 -10 -75 -25 -93 -32 -18 -8 -49 -14 -70 -14 -20 -1 -48 -7 -62 -15 -14 -8 -52 -14 -87 -15 -34 0 -74 -5 -90 -11 -15 -6 -46 -14 -68 -19 -51 -12 -191 -61 -231 -83 -18 -9 -47 -33 -65 -53 -20 -21 -68 -53 -116 -75 -63 -30 -88 -48 -107 -77 -13 -20 -41 -50 -61 -67 -36 -30 -175 -226 -175 -248 0 -7 -14 -30 -30 -51 -17 -22 -30 -45 -30 -51 0 -7 -9 -20 -21 -31 -30 -27 -49 -68 -49 -103 0 -17 -16 -65 -36 -107 -19 -42 -39 -98 -43 -124 -4 -26 -17 -64 -29 -84 -26 -44 -54 -160 -56 -236 -1 -30 -10 -77 -19 -103 -9 -26 -17 -60 -17 -75 0 -15 -13 -52 -28 -83 -25 -48 -30 -72 -35 -172 -7 -109 -20 -184 -46 -250 -6 -16 -11 -43 -11 -60 0 -18 -7 -54 -15 -81 -8 -27 -15 -65 -15 -85 0 -23 -11 -52 -30 -81 -16 -25 -30 -52 -30 -60 -1 -38 -53 -160 -90 -210 -54 -75 -73 -131 -91 -265 -5 -38 -14 -80 -19 -93 -5 -12 -14 -64 -20 -115 -11 -106 -28 -187 -42 -204 -6 -7 -14 -39 -18 -70 -23 -170 -33 -203 -85 -279 -14 -20 -25 -43 -25 -51 0 -8 -12 -40 -27 -70 -26 -56 -26 -57 -14 -162 7 -57 17 -113 22 -123 6 -11 7 -81 2 -186 -9 -206 -6 -274 13 -331 8 -24 17 -65 20 -90 4 -25 14 -58 24 -72 15 -22 18 -44 16 -150 -2 -147 5 -179 45 -216 17 -15 38 -35 48 -44 22 -22 179 -139 185 -139 3 0 22 -11 42 -25 20 -13 52 -27 73 -31 20 -4 65 -24 99 -45 44 -26 81 -40 120 -45 32 -3 83 -19 116 -35 32 -16 65 -29 73 -29 8 0 27 -6 41 -14 58 -30 111 -40 213 -40 155 -1 145 16 152 -269 3 -147 10 -243 17 -262 18 -44 14 -344 -5 -409 -8 -27 -15 -79 -15 -116 0 -44 -5 -73 -16 -89 -9 -12 -17 -35 -18 -49 -1 -15 -7 -45 -14 -67 -10 -38 -28 -171 -52 -400 -6 -55 -15 -134 -19 -176 -5 -42 -14 -86 -21 -98 -8 -16 -11 -85 -8 -239 3 -210 2 -218 -18 -238 -15 -15 -25 -44 -33 -98 -6 -42 -11 -83 -11 -91 0 -9 -13 -33 -29 -55 -20 -28 -30 -57 -35 -100 -9 -75 -22 -113 -58 -166 -15 -23 -28 -48 -28 -56 0 -8 -7 -23 -15 -34 -21 -27 -18 -67 7 -116 34 -65 49 -78 86 -78 l34 0 -5 48 c-3 26 -8 60 -12 75 -7 26 6 70 36 129 5 10 9 28 9 41 0 13 11 34 24 46 18 17 25 38 30 83 5 38 15 72 27 87 13 16 18 33 14 48 -4 16 1 25 15 33 15 8 20 20 18 43 -1 18 2 39 7 47 5 8 10 36 12 63 2 26 8 58 15 70 8 14 14 80 16 182 5 247 8 277 24 326 10 29 13 66 10 98 -3 39 -1 51 9 51 10 0 15 17 17 62 1 40 8 68 19 80 14 16 14 18 -2 24 -15 6 -17 17 -10 98 3 50 13 101 21 113 20 32 28 97 14 122 -10 20 -7 29 25 76 36 51 37 56 39 151 1 55 5 105 9 111 5 7 10 61 13 120 2 58 9 112 15 119 7 9 5 14 -10 19 -16 5 -21 15 -21 41 0 41 -15 74 -34 74 -16 0 -30 46 -19 63 4 6 10 48 14 92 4 44 14 121 23 170 32 176 31 165 6 165 -14 0 -41 21 -77 59 -60 65 -112 92 -177 91 -90 -1 -211 28 -264 62 -45 29 -164 66 -229 71 -12 1 -28 8 -35 14 -6 7 -19 13 -28 13 -8 0 -28 14 -44 30 -18 18 -40 30 -56 30 -14 0 -35 7 -46 15 -10 8 -26 15 -34 15 -17 0 -53 36 -63 63 -6 15 -10 16 -27 5 -17 -11 -22 -11 -29 0 -5 8 -19 19 -32 26 -14 6 -38 40 -57 77 -30 59 -32 69 -20 88 10 18 11 23 0 30 -7 4 -13 25 -12 47 1 90 -12 189 -26 200 -15 12 -20 29 -5 20 14 -9 40 4 52 26 8 15 7 24 -4 36 -19 21 -33 72 -20 72 11 0 73 -86 73 -102 0 -6 -7 -20 -16 -30 -16 -16 -15 -18 1 -24 12 -5 23 -1 31 11 15 20 24 17 28 -12 1 -10 17 -25 34 -33 22 -10 31 -20 28 -32 -3 -12 2 -18 14 -18 11 0 22 -5 25 -10 4 -6 15 -8 26 -5 14 5 21 0 29 -19 6 -16 17 -26 30 -26 15 0 20 -7 20 -25 0 -22 4 -25 34 -25 19 0 38 5 41 11 5 6 11 4 19 -7 11 -14 16 -14 33 -4 17 11 26 10 54 -5 19 -10 48 -24 64 -32 17 -8 37 -19 45 -24 8 -5 23 -12 32 -15 10 -4 20 -15 23 -25 4 -10 17 -22 30 -25 13 -3 26 -12 29 -20 7 -19 72 -19 80 1 3 8 16 15 30 15 23 0 37 -17 45 -56 0 -4 8 0 18 7 9 8 37 15 62 15 85 3 111 22 73 55 -22 19 -103 48 -162 59 -25 4 -58 12 -75 18 -16 5 -57 18 -90 28 -33 10 -67 23 -75 30 -8 6 -35 21 -60 33 -25 12 -63 33 -85 46 -22 13 -51 24 -65 25 -14 0 -34 7 -44 15 -11 8 -29 15 -40 15 -12 1 -39 12 -61 25 -22 14 -49 29 -61 34 -35 16 -84 71 -105 120 -12 25 -29 64 -40 87 -10 23 -19 56 -19 75 -1 51 -25 140 -49 179 -11 19 -25 44 -31 55 -6 11 -19 34 -30 50 -47 74 -80 165 -80 225 0 39 23 113 43 136 32 40 65 72 83 82 16 9 20 27 26 129 7 120 26 237 42 262 9 14 14 47 40 258 20 160 31 186 91 212 26 12 52 21 57 21 6 0 24 6 41 14 74 33 170 46 305 39 135 -6 140 -5 132 32 -1 6 -3 24 -3 40 -2 28 -6 31 -52 39 -27 6 -54 15 -60 22 -15 17 -98 28 -93 12 3 -7 14 -14 26 -16 29 -4 28 -20 0 -26 -67 -14 -79 -13 -89 5 -7 14 -21 19 -49 19 -35 0 -40 3 -45 28 -3 15 -9 38 -13 52 -11 35 5 90 35 122 21 22 25 34 21 70 -3 28 2 57 14 83 9 22 18 53 18 68 0 16 5 38 12 50 6 12 11 38 9 57 -1 24 5 45 18 61 15 20 20 40 19 85 -2 124 2 162 18 179 23 22 40 13 36 -18 -3 -23 0 -27 23 -27 22 0 26 3 20 18 -4 9 -9 26 -10 37 -1 11 -7 34 -14 50 -8 17 -15 51 -17 77 -4 42 -1 49 25 67 16 12 35 21 41 21 8 0 10 7 5 23 -4 12 -9 38 -10 57 -1 19 -5 51 -9 70 -10 46 7 88 36 92 18 2 22 8 20 26 -2 13 1 29 7 36 8 10 8 22 1 40 -25 66 5 89 50 41 44 -47 85 -24 56 32 -8 16 -18 67 -21 114 l-7 84 42 39 c40 37 41 40 35 86 -6 40 -3 51 18 76 13 16 34 50 45 77 11 26 26 47 31 47 6 0 11 7 11 15 0 24 47 42 71 27 21 -13 20 -15 24 46 4 60 11 72 40 72 19 0 29 9 42 35 13 27 26 38 55 45 21 6 63 33 94 60 32 28 62 50 69 50 7 0 26 14 43 30 21 20 42 30 63 30 34 0 61 12 102 46 25 21 34 23 106 17 69 -5 83 -3 113 15 44 27 102 42 218 54 52 5 102 16 110 23 8 7 35 18 60 25 25 7 55 17 68 23 17 8 28 8 42 -1 31 -19 48 -14 65 19 10 18 31 37 53 46 19 8 52 26 71 39 20 13 47 24 60 24 14 0 38 4 55 9 17 5 49 14 72 20 28 8 44 19 52 37 9 18 17 24 31 19 11 -3 37 4 61 16 l41 22 30 -29 c16 -15 29 -34 29 -41 0 -7 7 -13 16 -13 8 0 12 -5 9 -10 -8 -14 44 -78 140 -172 85 -84 101 -98 135 -116 14 -7 50 -28 80 -47 30 -19 75 -44 100 -56 194 -90 256 -116 315 -133 33 -9 75 -24 93 -32 18 -8 43 -14 55 -14 12 0 29 -4 37 -10 9 -5 19 -5 27 2 10 8 18 7 31 -4 12 -11 33 -14 70 -12 41 3 54 0 59 -12 5 -12 15 -15 44 -10 21 3 49 2 64 -4 19 -7 34 -6 53 3 18 9 42 11 72 6 78 -13 192 -9 235 8 24 9 64 15 99 14 48 -2 62 2 81 19 13 12 28 19 33 16 10 -6 101 23 124 40 20 15 89 37 95 30 3 -3 19 6 35 19 16 14 36 25 44 25 16 0 96 38 104 50 3 4 24 17 47 28 23 12 44 30 48 41 3 10 18 21 35 24 18 4 35 17 44 35 8 16 22 35 31 42 10 8 21 25 26 37 5 13 17 26 26 30 10 3 25 12 35 20 18 16 40 8 84 -30 15 -12 24 -15 29 -8 9 16 46 13 67 -6 10 -9 32 -16 49 -15 18 0 32 -5 36 -14 3 -8 15 -14 27 -14 12 0 30 -6 41 -13 36 -24 154 -67 169 -61 8 3 40 -6 70 -20 30 -14 59 -26 63 -26 5 0 14 -5 21 -12 7 -7 28 -13 48 -14 26 0 43 -9 64 -32 16 -18 36 -32 45 -32 8 0 20 -11 25 -25 6 -17 17 -25 33 -25 13 0 32 -8 41 -19 9 -10 29 -21 44 -24 31 -7 60 -30 180 -144 57 -54 97 -84 118 -87 17 -4 40 -16 52 -29 11 -12 39 -35 62 -52 64 -46 180 -166 180 -186 0 -6 18 -34 40 -62 48 -60 56 -84 40 -132 -14 -44 -7 -55 20 -30 16 14 22 15 35 5 8 -7 15 -20 15 -29 0 -18 87 -170 115 -202 15 -16 19 -41 22 -132 2 -61 8 -130 14 -152 8 -32 7 -51 -5 -85 -13 -39 -13 -46 -1 -60 8 -9 15 -21 15 -27 0 -6 14 -25 30 -43 25 -27 29 -38 24 -65 -4 -25 -1 -37 15 -52 15 -13 21 -31 20 -59 0 -21 2 -104 4 -184 4 -128 3 -149 -14 -182 -24 -47 -24 -52 4 -82 21 -23 24 -36 25 -118 1 -71 7 -104 22 -135 11 -23 20 -60 20 -83 0 -22 5 -40 10 -40 6 0 19 -9 30 -20 17 -17 18 -24 8 -47 -7 -16 -20 -37 -29 -48 -9 -11 -19 -28 -21 -38 -2 -11 -18 -24 -40 -32 -34 -11 -77 -49 -78 -67 0 -14 48 -8 64 7 8 8 24 15 34 15 11 0 22 6 25 13 3 9 7 9 17 0 8 -7 10 -25 7 -50 -3 -21 -9 -63 -13 -93 -3 -30 -11 -60 -16 -67 -7 -8 -4 -23 6 -44 22 -44 20 -58 -8 -69 -18 -6 -23 -14 -19 -29 4 -16 1 -19 -15 -14 -11 3 -23 11 -26 19 -4 10 -14 12 -29 9 -15 -4 -32 1 -47 13 -14 11 -38 22 -55 25 -16 3 -40 8 -52 12 -17 6 -23 3 -23 -9 0 -9 -8 -16 -20 -16 -13 0 -20 7 -20 19 0 11 -4 23 -10 26 -5 3 -10 16 -10 28 0 28 -39 55 -51 36 -5 -8 -2 -20 7 -30 21 -23 17 -39 -10 -39 -14 0 -31 -8 -38 -18 -20 -28 -35 -34 -56 -21 -17 11 -23 8 -45 -14 -16 -18 -23 -35 -20 -50 3 -13 -2 -31 -10 -39 -9 -9 -13 -25 -10 -42 4 -19 0 -31 -12 -40 -12 -8 -16 -19 -12 -30 5 -12 -2 -26 -22 -45 -28 -26 -29 -30 -18 -68 6 -23 7 -48 2 -59 -9 -20 -13 -42 -18 -111 -2 -24 -8 -48 -15 -55 -7 -7 -12 -17 -12 -24 0 -6 -10 -18 -22 -26 -20 -13 -21 -17 -9 -32 11 -13 11 -20 3 -28 -18 -18 -14 -35 11 -43 l22 -7 -25 -7 c-20 -6 -25 -13 -23 -38 2 -20 -4 -36 -17 -48 -26 -23 -29 -135 -5 -155 40 -33 6 -55 -97 -65 -101 -9 -208 -27 -213 -36 -3 -4 0 -11 6 -15 20 -12 257 -6 295 8 23 8 37 9 44 2 15 -15 -27 -67 -48 -59 -8 3 -30 -6 -48 -20 -28 -22 -34 -33 -34 -64 0 -40 -14 -58 -62 -79 -26 -11 -32 -8 -78 33 -28 25 -58 45 -67 45 -9 0 -29 12 -45 27 -24 23 -37 27 -110 30 -46 2 -93 9 -105 15 -12 6 -30 7 -40 3 -15 -6 -13 -10 16 -22 19 -8 46 -23 59 -34 20 -15 41 -19 112 -19 71 0 89 -3 94 -16 11 -28 6 -130 -6 -142 -9 -9 -7 -12 9 -12 12 0 25 -4 28 -10 3 -5 15 -10 25 -10 25 0 35 -17 19 -36 -15 -18 -64 -10 -92 14 -17 15 -20 15 -31 0 -10 -13 -24 -15 -77 -11 -52 4 -67 2 -78 -11 -7 -9 -21 -16 -31 -16 -10 0 -37 -11 -61 -24 -24 -13 -58 -27 -75 -31 -29 -5 -33 -11 -39 -51 -4 -28 -17 -55 -35 -75 -27 -30 -30 -31 -84 -25 -69 9 -172 -2 -157 -17 12 -12 163 -15 204 -4 26 7 29 4 49 -40 11 -26 29 -55 41 -64 17 -14 20 -27 20 -80 -1 -48 3 -69 17 -84 10 -12 22 -50 28 -94 7 -45 17 -78 25 -83 8 -4 20 -22 27 -40 7 -18 21 -51 31 -74 10 -22 24 -67 31 -100 6 -32 19 -64 27 -71 15 -10 14 -12 0 -18 -9 -3 -29 -5 -44 -3 -17 2 -30 -2 -33 -11 -4 -12 10 -13 87 -8 98 7 97 7 93 -46 -2 -13 3 -17 15 -13 10 2 47 8 83 11 36 4 75 13 87 21 27 17 65 18 81 2 9 -9 16 -7 33 8 20 18 22 18 34 1 9 -13 27 -17 69 -17 51 0 74 12 44 23 -25 9 11 32 50 33 22 0 72 17 122 41 47 23 94 41 105 40 14 -1 21 5 23 21 2 12 9 22 17 22 7 0 16 11 19 25 4 17 31 41 85 76 44 28 81 59 84 70 3 10 16 23 30 28 19 8 24 15 20 31 -4 16 0 23 16 27 11 3 21 9 21 14 0 4 21 20 46 35 26 15 43 32 40 39 -7 18 36 55 63 55 38 0 60 17 54 41 -5 19 -3 21 16 16 18 -4 21 -2 15 15 -5 18 -3 20 16 15 16 -4 20 -2 16 9 -6 15 29 34 60 34 45 0 -19 -276 -75 -321 -11 -9 -21 -29 -21 -43 0 -14 -6 -29 -12 -33 -18 -11 -34 -43 -43 -81 -3 -17 -12 -35 -18 -39 -21 -14 -57 -72 -57 -92 0 -11 -9 -25 -20 -31 -11 -6 -20 -16 -20 -24 0 -7 -10 -22 -22 -34 -13 -11 -32 -33 -43 -48 -11 -14 -39 -45 -63 -68 -23 -22 -50 -57 -60 -76 -10 -19 -33 -42 -50 -50 -17 -8 -32 -20 -32 -26 0 -6 -18 -14 -41 -18 -31 -5 -44 -13 -57 -36 -12 -21 -30 -34 -57 -42 -22 -6 -47 -17 -55 -23 -52 -41 -168 -45 -229 -9 -30 17 -31 17 -53 -2 -13 -11 -40 -27 -60 -37 -21 -9 -38 -22 -38 -29 0 -15 -50 -68 -64 -68 -6 0 -24 -10 -39 -23 -28 -22 -28 -23 -13 -59 9 -20 20 -39 25 -42 5 -3 9 -21 9 -38 1 -18 5 -48 11 -66 7 -22 6 -42 -1 -63 -8 -23 -7 -41 2 -69 11 -35 11 -42 -9 -75 -12 -20 -19 -41 -16 -45 7 -12 -15 -181 -25 -195 -4 -5 -11 -25 -15 -43 -7 -32 -9 -34 -41 -27 -29 5 -34 3 -34 -12 0 -11 10 -37 22 -58 19 -36 21 -54 20 -180 -2 -157 -8 -275 -17 -321 -4 -22 0 -38 15 -57 15 -19 18 -31 11 -49 -9 -25 -7 -187 5 -258 4 -25 15 -56 25 -69 11 -13 19 -29 19 -36 0 -7 9 -24 20 -38 20 -25 20 -27 3 -61 -13 -28 -14 -41 -6 -59 6 -13 7 -30 3 -37 -5 -8 -3 -22 5 -34 7 -12 16 -37 20 -56 4 -19 18 -57 32 -83 26 -51 24 -67 -9 -67 -16 0 -19 -5 -15 -22 5 -16 -4 -34 -30 -67 -60 -72 -111 -121 -128 -121 -8 0 -15 -4 -15 -9 0 -5 -7 -17 -16 -25 -14 -15 -10 -16 49 -16 53 0 65 3 73 19 5 10 38 39 73 63 46 31 73 58 92 93 15 27 39 60 53 72 14 12 26 25 26 29 0 3 -13 23 -30 44 -16 21 -30 43 -30 50 0 7 -6 24 -14 38 -26 52 -39 108 -42 187 -2 44 -10 103 -18 130 -47 163 -46 149 -46 482 0 262 3 327 15 356 8 20 15 60 15 90 0 29 5 58 10 63 18 18 42 127 45 204 2 41 10 92 19 112 21 50 22 219 1 278 -18 51 -20 171 -3 188 18 18 149 16 174 -3 32 -24 98 -18 164 15 33 17 71 30 86 30 15 0 49 16 77 36 27 20 70 47 95 61 52 29 74 52 98 103 9 19 60 78 114 130 53 52 110 117 126 144 16 27 41 69 56 95 15 25 33 62 39 81 7 19 25 50 40 68 16 18 29 41 29 52 0 10 4 21 9 25 5 3 31 69 56 148 90 272 90 285 21 370 -23 28 -53 71 -66 95 -13 23 -27 42 -31 42 -25 0 -41 215 -24 327 6 40 4 56 -9 74 -21 30 -20 67 1 115 14 32 18 80 21 270 4 231 4 231 -22 288 -26 56 -45 72 -47 39 -1 -10 0 -117 1 -239 1 -163 -3 -251 -15 -335 -23 -158 -51 -297 -69 -344 -24 -63 -20 -79 23 -108 63 -42 90 -85 97 -155 6 -52 3 -65 -15 -96 -30 -48 -134 -141 -188 -167 -44 -21 -173 -144 -291 -277 -92 -104 -245 -212 -300 -212 -10 0 -23 -5 -28 -10 -11 -11 -139 -39 -224 -49 -30 -4 -61 -10 -68 -15 -14 -8 -108 -32 -168 -43 -29 -4 -33 -2 -53 39 -11 24 -21 52 -21 61 0 9 -13 45 -29 79 -27 60 -70 191 -107 323 -43 160 -76 249 -94 260 -5 3 -10 26 -10 51 0 48 -1 47 81 73 19 6 73 16 118 22 78 11 85 10 112 -10 30 -22 74 -28 84 -11 3 6 18 10 33 10 15 1 52 13 82 29 l55 27 3 76 c3 71 5 77 35 105 18 16 49 39 69 51 20 13 61 49 90 82 30 32 66 64 81 71 19 9 27 19 25 32 -3 22 -12 28 -80 57 -56 22 -58 32 -28 117 11 32 20 70 20 86 0 15 7 39 16 52 20 30 33 80 43 165 8 64 19 115 47 216 8 28 14 69 14 92 0 23 4 51 9 64 6 13 13 49 16 81 9 81 26 91 125 73 41 -7 86 -18 100 -24 47 -19 137 -42 163 -42 25 0 42 -6 142 -51 22 -10 51 -32 65 -49 14 -16 29 -30 34 -30 12 0 -1 195 -14 220 -6 11 -10 105 -10 215 0 151 3 204 15 232 28 66 20 121 -32 224 l-47 94 2 250 c2 286 -6 380 -38 450 -14 31 -26 83 -31 140 -5 49 -15 128 -23 175 -8 47 -21 128 -29 180 -19 118 -25 135 -73 187 -22 23 -47 63 -58 90 -10 26 -29 71 -42 100 -13 28 -24 58 -24 66 0 8 -16 38 -35 67 -19 29 -35 56 -35 61 0 4 -6 12 -12 16 -14 9 -33 37 -47 69 -5 11 -24 34 -41 50 -18 16 -46 43 -64 60 -37 36 -120 94 -136 94 -23 0 -89 50 -109 84 -12 19 -31 38 -42 41 -11 4 -47 30 -81 58 -99 84 -138 111 -228 155 -47 23 -107 62 -134 87 -27 25 -61 48 -75 51 -14 2 -46 11 -71 19 -25 8 -63 15 -85 15 -22 1 -51 7 -65 15 -14 8 -35 14 -48 15 -29 0 -122 29 -142 44 -8 7 -26 17 -40 23 -14 6 -60 27 -104 47 -43 20 -83 36 -88 36 -6 0 -30 14 -55 30 -24 17 -53 30 -64 30 -19 0 -20 -4 -14 -51 7 -47 5 -54 -29 -102 -19 -29 -54 -68 -77 -87 -23 -19 -55 -47 -72 -61 -17 -15 -60 -41 -96 -59 -36 -17 -73 -36 -81 -41 -8 -5 -26 -14 -40 -20 -14 -6 -33 -15 -42 -20 -10 -5 -26 -9 -36 -9 -10 0 -27 -7 -38 -15 -10 -8 -28 -15 -39 -15 -11 0 -33 -7 -49 -15 -15 -8 -36 -15 -45 -15 -9 0 -41 -6 -71 -14 -186 -46 -200 -47 -400 -43 -177 4 -349 22 -375 38 -5 4 -34 10 -63 14 -30 4 -66 13 -80 21 -15 8 -37 14 -49 14 -12 0 -24 4 -27 9 -3 5 -18 12 -33 15 -50 12 -272 121 -296 145 -6 6 -17 11 -25 11 -43 0 -297 225 -335 297 -83 156 -82 167 4 170 30 1 70 6 90 11 60 15 209 123 209 151 0 9 9 24 20 34 15 13 20 29 20 72 0 36 8 73 25 111 24 55 25 59 10 103 -18 56 -40 189 -33 197 8 7 94 -34 109 -52 6 -8 19 -14 28 -14 9 0 36 -16 60 -35 24 -19 61 -42 82 -52 22 -9 39 -21 39 -26 0 -6 23 -7 54 -4 41 4 58 2 67 -9 6 -8 19 -14 28 -14 10 0 26 -7 37 -15 26 -20 108 -20 124 0 19 22 -2 40 -43 37 -22 -2 -44 6 -67 23 -30 22 -35 23 -50 10 -26 -23 -47 -18 -77 20 -16 21 -54 49 -89 65 -72 35 -169 112 -189 150 -8 15 -27 33 -44 40 -27 11 -61 61 -61 90 0 7 -8 19 -17 26 -17 12 -17 14 2 28 19 15 19 15 -7 16 -30 0 -52 26 -63 73 -6 23 -4 26 9 21 12 -5 19 0 23 15 3 14 13 21 29 21 15 0 24 6 24 15 0 9 -9 15 -25 15 -15 0 -25 -6 -25 -14 0 -23 -38 -29 -73 -12 -35 16 -87 76 -87 100 0 8 -6 27 -14 43 -8 15 -22 62 -31 103 -11 47 -29 92 -49 120 -34 50 -32 25 -29 370 1 80 2 170 1 200 0 30 5 82 10 115 26 157 35 203 48 240 8 23 14 63 14 90 0 27 6 67 14 90 8 22 20 60 27 84 14 46 58 111 121 177 73 77 27 113 -56 44 -26 -22 -52 -40 -57 -40 -19 0 -27 38 -20 100 6 49 5 70 -5 85 -21 29 -17 59 11 89 14 15 25 37 25 49 0 12 14 35 30 51 27 26 33 28 56 17 15 -6 27 -10 29 -9 5 8 24 66 30 92 3 16 17 45 31 65 13 19 24 39 24 43 0 8 51 60 90 91 32 26 77 21 258 -30 48 -13 56 -13 77 1 14 9 33 16 44 16 20 0 37 17 27 27 -3 3 -40 7 -82 8 -61 3 -80 7 -98 24 -19 18 -27 20 -50 11 -15 -5 -32 -7 -38 -4 -6 4 -47 8 -92 8 -70 2 -85 -1 -113 -21 -17 -13 -41 -23 -52 -23 -12 0 -21 -7 -21 -15 0 -8 -5 -15 -11 -15 -18 0 1 62 33 105 16 22 42 61 58 88 l30 47 36 -15 c41 -17 94 -20 94 -6 0 6 -9 16 -20 24 -17 11 -19 21 -13 64 4 40 13 59 44 93 22 23 39 46 39 51 0 33 70 50 113 27 28 -15 97 -28 114 -21 22 9 14 23 -12 23 -14 0 -34 11 -47 25 -12 14 -30 25 -40 25 -29 0 -35 30 -10 51 32 25 94 33 151 18 26 -6 60 -9 75 -5 24 6 27 11 22 31 -5 21 -1 27 26 40 18 8 40 20 49 27 13 9 28 8 72 -6 31 -10 61 -24 67 -32 9 -10 17 -11 30 -4 13 7 21 7 25 0 3 -5 19 -10 34 -10 15 0 32 -5 38 -11 8 -8 17 -7 34 5 29 20 45 21 29 1 -13 -16 -7 -45 10 -45 5 0 10 12 10 28 1 25 2 26 15 9 7 -11 11 -25 8 -33 -5 -15 23 -54 39 -54 16 0 113 -72 156 -116 24 -24 48 -44 53 -44 5 0 9 12 9 28 1 26 1 26 15 8 8 -10 12 -23 9 -28 -3 -4 6 -3 20 4 28 12 33 24 14 31 -7 3 -4 6 8 6 11 1 29 -8 39 -19 10 -11 24 -20 31 -20 50 0 171 -106 189 -164 13 -44 100 -137 120 -130 9 4 18 -1 21 -10 5 -13 14 -15 34 -11 16 3 31 2 34 -4 3 -5 24 -12 46 -16 40 -7 51 -19 28 -29 -10 -3 -8 -9 5 -19 9 -8 17 -24 17 -35 0 -12 18 -36 46 -58 38 -32 45 -42 42 -68 -2 -25 -11 -35 -40 -49 -21 -10 -38 -25 -38 -33 0 -18 18 -18 61 0 19 8 55 13 79 12 39 -2 45 -5 48 -27 2 -13 8 -29 14 -36 13 -17 -1 -85 -23 -106 -44 -41 -1 -64 61 -32 25 13 28 18 23 54 -4 30 0 49 16 76 19 32 20 41 10 74 -6 21 -38 69 -70 107 -32 38 -79 111 -105 161 -44 88 -49 94 -87 104 -23 6 -48 20 -55 30 -18 26 -81 51 -110 44 -17 -4 -24 0 -32 19 -5 14 -19 26 -32 28 -15 2 -24 11 -26 25 -2 12 -10 27 -18 33 -8 7 -14 24 -14 38 0 30 -59 89 -98 98 -104 22 -216 66 -254 98 -23 20 -50 36 -60 36 -23 0 -59 22 -116 72 -24 20 -56 39 -71 43 -15 3 -38 16 -52 29 -40 37 -84 56 -126 55 -21 -1 -77 2 -125 6 l-88 7 -11 -28z m-1104 -1994 c3 -11 3 -25 0 -30 -4 -6 1 -22 10 -37 12 -18 15 -35 10 -62 -9 -43 -9 -185 0 -294 6 -73 5 -79 -12 -75 -36 7 -48 55 -51 216 -3 127 -1 161 14 202 14 40 15 52 5 64 -13 15 -8 36 9 36 5 0 11 -9 15 -20z m5 -559 c0 -11 5 -23 10 -26 14 -8 13 -52 -2 -61 -25 -15 -54 77 -31 99 12 13 23 7 23 -12z m-2940 -6656 c0 -9 -6 -12 -15 -9 -8 4 -15 10 -15 15 0 5 7 9 15 9 8 0 15 -7 15 -15z"/> <path d="M4980 13281 c0 -34 125 -151 161 -151 23 0 25 18 2 27 -22 9 -53 40 -53 54 0 7 -9 27 -21 45 -17 28 -27 34 -55 34 -19 0 -34 -4 -34 -9z"/> <path d="M4760 13170 c0 -17 49 -35 61 -23 6 6 8 16 5 22 -9 14 -66 14 -66 1z"/> <path d="M4850 13151 c0 -5 11 -12 25 -15 14 -4 25 -12 25 -19 0 -6 14 -20 31 -29 l30 -18 -3 27 c-2 22 -10 30 -40 38 -20 5 -40 13 -44 18 -10 10 -24 9 -24 -2z"/> <path d="M4990 13052 c0 -14 48 -54 60 -50 15 5 -27 58 -46 58 -8 0 -14 -4 -14 -8z"/> <path d="M4642 12959 c2 -7 10 -15 17 -17 8 -3 12 1 9 9 -2 7 -10 15 -17 17 -8 3 -12 -1 -9 -9z"/> <path d="M4732 12899 c2 -6 8 -10 13 -10 5 0 11 4 13 10 2 6 -4 11 -13 11 -9 0 -15 -5 -13 -11z"/> <path d="M5135 12778 c-25 -29 -29 -31 -58 -20 -35 12 -144 6 -164 -10 -6 -5 -21 -8 -32 -6 -11 2 -20 -1 -21 -7 0 -5 10 -12 22 -14 24 -3 38 -17 38 -38 0 -6 -17 -17 -37 -24 -21 -6 -42 -18 -46 -25 -4 -8 -15 -14 -22 -14 -8 0 -15 -5 -15 -11 0 -15 65 -7 165 20 44 12 109 23 144 24 39 2 66 8 69 15 5 17 29 15 36 -3 4 -12 10 -14 25 -5 28 15 61 12 67 -5 13 -32 89 -8 79 24 -8 27 22 35 35 11 12 -22 45 -26 99 -10 28 8 36 6 50 -9 23 -27 61 -37 61 -16 0 35 -20 55 -56 55 -19 0 -45 5 -56 11 -18 10 -64 16 -153 22 -16 1 -36 6 -42 10 -9 6 -13 2 -13 -11 0 -10 11 -24 26 -30 14 -7 22 -17 19 -22 -8 -12 -65 -13 -65 -1 0 14 -37 20 -49 8 -13 -13 -61 10 -61 30 0 16 22 17 39 1 10 -11 12 -4 9 31 -3 41 -5 44 -35 47 -25 3 -37 -2 -58 -28z"/> <path d="M5588 12780 c12 -11 22 -25 22 -30 0 -5 19 -10 43 -12 38 -3 42 -5 39 -27 -3 -22 -1 -23 26 -18 25 5 31 2 35 -14 3 -12 10 -18 16 -14 13 7 15 35 3 35 -5 0 -15 15 -24 33 -16 33 -47 47 -143 62 l-40 7 23 -22z"/> <path d="M4745 12760 c-11 -18 13 -36 31 -25 9 6 16 15 17 20 3 14 -40 18 -48 5z"/> <path d="M5812 12636 c-15 -34 -15 -36 2 -36 20 0 24 10 17 39 l-6 24 -13 -27z"/> <path d="M5994 12569 c-5 -9 -17 -18 -26 -22 -29 -11 -24 -88 7 -117 17 -16 25 -34 25 -56 0 -44 9 -64 29 -64 10 0 27 -13 39 -30 23 -30 29 -70 12 -70 -23 0 -31 -53 -16 -101 9 -26 16 -57 16 -69 0 -33 18 -60 40 -60 16 0 20 8 22 38 3 65 -3 106 -18 123 -8 8 -14 23 -14 32 0 24 19 31 27 10 3 -10 26 -36 49 -59 24 -22 44 -48 44 -57 0 -9 9 -40 20 -69 24 -65 25 -68 3 -68 -10 0 -26 14 -35 30 -19 33 -35 37 -63 16 -24 -17 -13 -50 15 -43 21 5 29 -16 10 -28 -18 -11 -10 -35 15 -45 30 -12 32 -38 5 -72 -10 -14 -17 -28 -14 -31 9 -9 6 -109 -3 -118 -18 -18 -73 54 -73 95 0 22 -71 155 -106 196 -6 8 -14 24 -16 35 -2 11 -10 20 -18 20 -9 0 -13 -6 -11 -15 3 -8 5 -28 6 -45 1 -29 15 -60 62 -132 13 -19 26 -58 29 -91 4 -31 11 -63 16 -69 6 -7 8 -19 5 -28 -4 -8 0 -27 8 -42 9 -17 12 -42 8 -69 -3 -24 -3 -51 1 -60 6 -16 8 -16 20 2 26 35 29 5 6 -53 -18 -43 -24 -76 -23 -128 5 -248 4 -258 -16 -279 -15 -16 -22 -46 -30 -124 -7 -62 -7 -110 -2 -120 5 -9 5 -23 0 -31 -4 -9 -11 -37 -14 -63 -3 -26 -17 -63 -31 -83 -13 -20 -24 -43 -24 -51 0 -8 -8 -17 -17 -21 -34 -12 -90 -94 -78 -113 7 -12 -16 -58 -69 -133 -22 -32 -45 -66 -51 -75 -5 -10 -24 -35 -40 -57 -29 -38 -57 -94 -70 -142 -4 -13 -10 -23 -15 -23 -5 0 -18 -20 -29 -44 -11 -25 -29 -51 -40 -58 -37 -23 -25 -38 29 -38 61 0 68 -12 47 -77 -11 -32 -13 -53 -6 -65 5 -9 14 -40 19 -69 9 -46 7 -55 -16 -95 -27 -46 -18 -60 18 -27 23 21 54 6 51 -23 -6 -53 79 -245 114 -258 36 -14 109 -68 127 -94 10 -15 49 -42 87 -60 38 -19 71 -38 75 -43 8 -13 88 -11 102 3 21 21 -68 90 -223 172 -46 24 -80 51 -100 77 -16 23 -42 57 -57 78 -15 20 -27 49 -28 64 0 15 -7 38 -14 50 -26 38 -38 136 -43 325 l-4 183 30 38 c17 21 31 42 31 46 0 4 17 33 38 64 48 70 112 204 112 234 0 26 31 90 56 118 12 13 31 19 59 19 28 0 50 7 66 21 13 11 36 28 50 36 16 10 36 38 49 70 12 30 29 57 36 60 8 3 14 15 14 28 0 12 7 28 16 35 12 11 15 35 13 127 -2 93 1 116 14 131 10 10 17 22 17 27 0 5 6 16 13 24 14 16 47 183 47 234 0 16 -8 30 -19 36 -15 9 -26 4 -60 -27 -34 -31 -41 -44 -41 -75 0 -24 7 -44 21 -58 16 -16 19 -28 15 -52 -9 -48 -42 -95 -68 -99 -31 -4 -36 -47 -8 -73 23 -21 28 -75 6 -75 -8 0 -24 -12 -35 -26 l-20 -26 20 -28 c25 -32 19 -64 -14 -81 -12 -7 -26 -18 -30 -25 -12 -20 -61 -17 -80 4 -27 29 -21 50 16 60 31 8 31 9 8 16 -22 8 -23 12 -19 73 3 43 9 69 19 77 9 6 18 22 22 36 3 14 16 30 29 35 18 8 23 19 24 48 1 20 4 40 8 44 3 3 0 13 -7 22 -18 21 -41 106 -32 120 3 6 14 11 24 11 14 0 17 6 13 31 -4 25 1 36 19 50 13 10 35 19 49 19 32 1 82 45 78 68 -2 10 -13 17 -28 17 -20 0 -26 6 -28 28 -3 22 1 27 18 27 21 0 22 3 16 53 -3 28 -7 93 -8 142 -2 72 1 96 15 115 14 20 16 37 11 85 -5 49 -2 70 14 106 12 25 19 55 16 66 -3 11 4 39 15 61 26 51 26 52 1 52 -18 0 -20 4 -14 43 8 52 10 54 34 39 20 -12 25 -6 14 22 -8 20 -44 21 -44 1 0 -8 -4 -15 -9 -15 -5 0 -11 -12 -13 -27 -2 -23 -9 -29 -32 -31 -23 -3 -34 3 -53 27 -14 17 -31 31 -39 31 -17 0 -17 13 -2 80 7 29 18 55 26 58 8 2 25 16 38 29 39 39 8 59 -41 27 -14 -9 -25 -14 -25 -10 0 3 -15 -3 -32 -14 -48 -29 -75 -26 -83 8 -3 16 -23 46 -45 67 -32 32 -38 43 -33 66 3 16 1 29 -4 29 -6 0 -14 10 -20 22 -8 19 -11 20 -19 7z m226 -1174 c0 -18 -32 -28 -42 -13 -5 8 -1 18 9 25 18 14 33 9 33 -12z m-97 -837 c15 -22 2 -46 -28 -54 -35 -9 -39 -2 -21 41 16 37 32 42 49 13z"/> <path d="M4060 12301 c-15 -30 -12 -59 9 -70 27 -15 49 28 33 64 -14 30 -28 32 -42 6z"/> <path d="M4466 11850 c-15 -5 -36 -15 -45 -23 -9 -8 -25 -18 -37 -21 -12 -4 -26 -18 -32 -31 -10 -22 -18 -25 -63 -25 -42 0 -52 3 -56 20 -6 23 -32 26 -55 8 -23 -20 -48 -60 -48 -80 0 -22 26 -24 34 -3 4 12 16 14 60 9 40 -5 60 -3 75 8 17 12 46 15 134 12 147 -4 180 -10 251 -45 33 -16 66 -29 74 -29 8 0 29 -16 46 -36 28 -33 34 -36 54 -25 12 6 22 20 22 31 0 10 10 26 22 35 18 12 21 19 12 33 -6 9 -25 18 -41 20 -25 2 -34 11 -48 43 -10 21 -22 39 -26 39 -4 0 -11 9 -14 20 -5 17 -10 18 -27 9 -12 -6 -34 -8 -52 -4 -17 4 -65 13 -106 19 -41 7 -82 15 -90 19 -8 3 -28 1 -44 -3z"/> <path d="M5673 11789 c-12 -12 -110 -31 -163 -31 -19 0 -55 4 -80 10 -25 6 -75 11 -112 12 -53 0 -69 -4 -77 -17 -10 -17 -12 -17 -25 0 -17 22 -24 22 -47 -5 -30 -37 -18 -101 14 -69 15 15 27 14 27 -4 0 -8 -4 -15 -10 -15 -12 0 -10 1 -67 -14 -47 -12 -48 -14 -45 -47 2 -19 12 -43 21 -54 10 -11 24 -42 31 -70 17 -64 20 -69 33 -56 18 18 27 13 27 -14 0 -22 4 -25 39 -25 34 0 41 4 67 45 15 25 36 48 46 51 28 9 48 -13 42 -45 -9 -46 14 -60 101 -59 67 1 75 3 75 20 0 29 54 21 58 -8 2 -17 14 -25 47 -33 50 -13 142 -14 111 -2 -19 7 -19 8 3 23 17 12 21 21 15 42 -3 14 -13 26 -20 26 -12 0 -66 32 -84 50 -29 29 -141 56 -125 30 3 -5 19 -10 35 -10 15 0 30 -7 34 -15 3 -8 11 -15 18 -15 15 0 92 -79 85 -86 -3 -3 -13 -1 -24 4 -57 31 -152 71 -180 77 -31 6 -33 5 -33 -20 0 -45 -78 -52 -94 -8 -13 32 13 43 39 17 15 -15 17 -15 30 2 18 26 6 31 -82 36 -55 3 -73 0 -73 -9 0 -7 -11 -13 -25 -13 -14 0 -34 -9 -45 -20 -21 -21 -50 -27 -50 -9 0 5 20 19 45 30 24 11 49 27 54 37 8 14 29 17 125 20 131 5 157 21 39 24 -140 4 -188 -2 -232 -28 l-32 -19 -19 25 c-24 31 -21 44 10 48 13 2 29 11 35 19 20 27 246 28 410 1 16 -2 20 3 20 27 0 28 -12 39 -60 59 -17 7 29 36 49 31 11 -2 26 0 32 6 21 17 83 -58 68 -82 -3 -6 9 -25 27 -44 89 -87 92 -92 85 -146 -6 -47 -6 -49 18 -49 34 0 40 14 21 50 -9 17 -16 54 -17 81 0 41 -5 57 -30 84 -16 19 -38 37 -50 40 -11 4 -27 23 -35 43 -28 68 -72 99 -100 71z"/> <path d="M4385 11650 c-4 -6 30 -10 97 -9 88 1 96 3 53 9 -72 12 -143 12 -150 0z"/> <path d="M4284 11616 c-11 -8 -33 -16 -49 -18 -40 -4 -42 -27 -10 -77 18 -26 37 -42 56 -46 16 -4 29 -11 29 -16 0 -5 11 -9 25 -9 27 0 33 14 11 27 -7 4 -18 18 -25 30 -10 20 -8 24 19 38 40 21 38 35 -5 35 -40 0 -47 17 -10 26 14 3 25 10 25 15 0 14 -43 11 -66 -5z"/> <path d="M4635 11620 c-3 -5 -2 -10 4 -10 5 0 16 -6 23 -12 7 -7 30 -22 50 -32 21 -10 40 -27 43 -37 9 -27 45 -45 56 -28 25 40 -17 99 -71 99 -19 0 -48 7 -64 15 -34 18 -33 18 -41 5z"/> <path d="M4413 11583 c-16 -12 -10 -112 8 -124 8 -5 26 -9 40 -9 15 0 40 -3 57 -6 27 -5 32 -3 45 27 9 19 17 43 19 54 5 32 32 28 74 -12 22 -21 52 -47 67 -57 17 -12 26 -25 22 -34 -7 -19 23 -52 48 -52 17 0 18 5 13 38 -4 20 -16 44 -27 52 -12 8 -35 29 -53 45 -71 67 -87 74 -198 80 -56 4 -108 3 -115 -2z m47 -24 c0 -7 11 -9 29 -6 28 6 41 -5 41 -34 0 -13 -74 -11 -88 3 -17 17 -15 48 3 48 8 0 15 -5 15 -11z"/> <path d="M4635 11429 c-4 -6 -4 -13 -1 -16 8 -8 36 5 36 17 0 13 -27 13 -35 -1z"/> <path d="M4555 11383 c-55 -17 -245 -26 -245 -12 0 5 -7 9 -15 9 -42 0 5 -36 80 -62 68 -23 118 -22 167 3 23 12 63 27 90 35 49 15 60 27 32 38 -24 9 -54 6 -109 -11z"/> <path d="M5310 11370 c0 -5 14 -10 31 -10 17 0 28 4 24 10 -3 6 -17 10 -31 10 -13 0 -24 -4 -24 -10z"/> <path d="M4830 11342 c0 -15 18 -34 29 -31 7 3 3 11 -9 21 -11 10 -20 14 -20 10z"/> <path d="M5310 11310 c0 -20 64 -70 100 -77 75 -16 220 -3 250 22 8 7 23 15 33 16 10 2 17 9 15 14 -2 6 -10 8 -18 6 -43 -12 -300 6 -362 25 -10 3 -18 0 -18 -6z"/> <path d="M4679 11163 c-11 -29 0 -43 34 -43 18 0 21 11 11 48 -9 30 -32 28 -45 -5z"/> <path d="M4528 11052 c-27 -21 -48 -45 -48 -55 0 -14 -5 -17 -19 -12 -13 4 -21 0 -25 -12 -4 -10 -45 -49 -91 -87 -96 -78 -135 -142 -133 -219 0 -37 4 -45 27 -55 43 -19 60 -73 54 -162 -4 -48 -11 -78 -19 -83 -27 -15 -14 -37 37 -63 l51 -26 -6 39 c-12 73 -12 224 0 234 20 17 57 0 111 -50 28 -26 63 -55 76 -64 23 -15 26 -15 42 3 25 27 30 26 74 -20 21 -23 47 -40 59 -40 35 0 25 20 -18 37 -34 14 -39 19 -34 39 9 35 -2 44 -36 32 -24 -8 -38 -6 -75 12 -25 12 -45 27 -45 34 0 21 25 47 45 48 52 2 148 -12 162 -24 10 -8 35 -12 65 -10 37 3 54 -1 69 -14 20 -18 22 -18 51 -1 39 23 89 22 121 -3 22 -17 26 -18 37 -5 14 17 46 20 55 5 3 -6 23 -8 43 -5 29 5 43 1 66 -18 36 -29 31 -61 -7 -52 -17 5 -26 2 -30 -9 -5 -12 4 -20 29 -31 31 -13 40 -13 63 -1 61 34 90 37 133 15 39 -20 40 -22 35 -61 -3 -23 0 -49 6 -60 10 -16 9 -22 -5 -32 -27 -20 -23 -56 5 -56 35 0 63 59 48 101 -8 25 -7 44 6 93 14 54 14 66 2 91 -17 35 -41 50 -64 41 -14 -5 -15 -9 -5 -22 10 -11 10 -18 2 -26 -12 -12 -46 -1 -157 52 -58 28 -67 29 -245 34 -208 7 -271 11 -368 27 -37 6 -78 10 -92 9 -95 -10 -254 2 -265 21 -3 4 6 21 20 37 14 16 25 40 25 51 0 12 11 33 25 47 16 16 24 32 20 43 -3 12 16 39 61 86 37 38 73 84 81 102 7 18 22 39 33 45 22 14 27 39 8 37 -7 0 -34 -17 -60 -37z"/> <path d="M5245 11051 c-3 -5 3 -16 13 -23 26 -19 81 -106 92 -147 12 -43 33 -70 80 -101 41 -27 60 -48 60 -67 0 -22 -27 -14 -58 17 -52 51 -79 31 -39 -28 22 -34 46 -52 90 -66 9 -3 17 -14 17 -24 0 -10 5 -23 12 -30 7 -7 13 -28 14 -47 1 -41 1 -40 35 -48 22 -6 28 -3 33 16 13 48 5 143 -17 199 -23 58 -101 151 -135 162 -11 4 -27 26 -36 51 -19 48 -66 95 -97 95 -10 0 -19 7 -19 15 0 18 -36 39 -45 26z"/> <path d="M4687 10929 c-10 -11 -31 -22 -47 -26 -55 -10 -26 -46 51 -62 44 -10 55 -9 69 4 9 9 25 13 34 9 26 -10 19 9 -20 54 -39 46 -59 51 -87 21z"/> <path d="M4995 10917 c-20 -13 -54 -48 -55 -58 0 -11 76 -44 115 -49 l40 -5 1 -50 c0 -27 -3 -56 -9 -62 -13 -18 -57 7 -91 51 -39 51 -60 48 -53 -7 3 -24 11 -56 17 -71 9 -24 14 -27 38 -22 15 4 52 10 82 13 30 3 67 14 82 24 14 11 31 19 37 19 16 0 13 46 -4 60 -17 14 -5 46 27 68 22 16 24 40 3 48 -8 3 -30 0 -50 -6 -34 -11 -39 -10 -63 13 -20 18 -88 51 -96 46 -1 0 -10 -6 -21 -12z"/> <path d="M4876 10874 c-7 -18 0 -34 15 -34 5 0 9 11 9 25 0 28 -15 34 -24 9z"/> <path d="M4532 10783 c2 -17 9 -28 18 -28 27 0 80 -27 80 -41 0 -18 43 -35 92 -38 20 -1 43 -8 51 -15 11 -9 35 -10 87 -5 40 4 68 10 62 13 -5 3 -12 17 -15 31 -9 36 -71 60 -149 58 -40 -1 -63 2 -66 10 -2 7 -8 12 -14 12 -6 0 -8 -7 -4 -15 3 -9 0 -15 -9 -15 -8 0 -15 6 -15 14 0 25 -24 36 -59 26 -25 -7 -33 -6 -38 6 -9 25 -24 15 -21 -13z"/> <path d="M5732 10774 c1 -9 9 -19 16 -22 9 -3 13 2 10 14 -1 9 -9 19 -16 22 -9 3 -13 -2 -10 -14z"/> <path d="M5254 10705 c-11 -29 4 -46 33 -39 37 9 36 9 21 33 -15 24 -46 28 -54 6z"/> <path d="M4714 10464 c3 -9 6 -22 6 -30 0 -8 9 -14 20 -14 24 0 26 22 4 44 -20 21 -38 21 -30 0z"/> <path d="M5093 10444 c-4 -12 -14 -14 -43 -9 -23 4 -41 2 -45 -4 -3 -6 -18 -11 -31 -11 -44 0 -21 -25 27 -28 60 -5 186 18 165 30 -9 5 -16 16 -16 23 0 20 -49 19 -57 -1z"/> <path d="M4806 10422 c-10 -17 21 -33 56 -30 50 5 44 32 -9 36 -22 2 -44 -1 -47 -6z"/> <path d="M5000 10303 c-14 -2 -34 -9 -46 -14 -21 -11 -137 -7 -221 6 -39 6 -44 5 -52 -18 -5 -13 -17 -27 -25 -30 -24 -10 -21 -63 4 -70 11 -3 20 -12 20 -22 0 -9 6 -15 13 -13 6 1 25 -6 40 -16 22 -15 32 -17 50 -8 32 16 138 12 165 -6 18 -12 41 -14 104 -9 45 4 86 11 92 17 7 7 3 10 -12 10 -28 0 -46 34 -39 77 5 31 4 34 -24 40 -37 7 -38 21 -1 25 16 2 27 9 27 18 0 16 -45 22 -95 13z"/> <path d="M4370 10261 c0 -12 5 -21 10 -21 6 0 10 6 10 14 0 8 -4 18 -10 21 -5 3 -10 -3 -10 -14z"/> <path d="M5365 10186 c-20 -30 -14 -56 14 -56 25 0 38 47 18 68 -13 13 -17 11 -32 -12z"/> <path d="M5167 10174 c-13 -13 -7 -44 8 -44 8 0 15 7 15 15 0 8 0 18 1 22 1 10 -16 15 -24 7z"/> <path d="M4402 10139 c2 -6 8 -10 13 -10 5 0 11 4 13 10 2 6 -4 11 -13 11 -9 0 -15 -5 -13 -11z"/> <path d="M5295 10070 c-8 -13 13 -40 31 -40 15 0 17 10 8 34 -7 18 -30 21 -39 6z"/> <path d="M4818 9964 c-21 -19 -38 -41 -38 -47 0 -21 86 -60 106 -49 23 13 29 75 9 92 -8 7 -15 19 -15 26 0 24 -23 15 -62 -22z"/> <path d="M5120 9865 c0 -8 5 -15 10 -15 6 0 10 7 10 15 0 8 -4 15 -10 15 -5 0 -10 -7 -10 -15z"/> <path d="M4850 9792 c0 -14 11 -21 26 -15 8 3 11 9 8 14 -7 11 -34 12 -34 1z"/> <path d="M4846 9372 c-3 -6 1 -15 10 -23 17 -14 84 -2 87 16 2 13 -89 19 -97 7z"/> <path d="M5070 8785 c0 -8 5 -15 10 -15 6 0 10 7 10 15 0 8 -4 15 -10 15 -5 0 -10 -7 -10 -15z"/> <path d="M5296 8663 c-12 -12 -6 -21 19 -27 26 -7 65 7 49 16 -18 10 -61 17 -68 11z"/> <path d="M2310 8091 c0 -6 11 -22 25 -37 14 -15 36 -50 49 -78 14 -28 36 -64 50 -80 15 -16 26 -34 26 -39 0 -18 34 -87 42 -87 22 0 16 33 -17 98 -19 39 -35 75 -35 81 0 6 -4 11 -9 11 -4 0 -20 19 -35 43 -28 44 -96 106 -96 88z"/> <path d="M2670 7785 c0 -32 7 -72 17 -93 l18 -37 3 64 c3 62 -11 121 -29 121 -5 0 -9 -25 -9 -55z"/> <path d="M2516 7733 c11 -45 25 -66 36 -55 6 6 4 22 -6 46 -18 43 -40 49 -30 9z"/> <path d="M3161 7697 c-27 -43 -21 -61 10 -30 13 12 19 30 17 44 -3 22 -4 22 -27 -14z"/> <path d="M6865 7655 c-10 -73 -10 -119 1 -137 19 -30 30 101 15 167 -7 27 -9 23 -16 -30z"/> <path d="M1607 7186 c-7 -19 11 -32 24 -19 6 6 5 14 -4 22 -12 9 -16 8 -20 -3z"/> <path d="M2014 7129 c-3 -6 -1 -16 5 -22 8 -8 11 -5 11 11 0 24 -5 28 -16 11z"/> <path d="M2037 7083 c-3 -5 7 -47 22 -93 16 -46 27 -89 24 -96 -3 -7 5 -27 16 -43 12 -17 21 -45 21 -68 0 -21 9 -58 20 -82 11 -24 20 -57 20 -74 0 -17 4 -44 9 -61 5 -17 14 -53 19 -81 12 -62 38 -164 58 -230 9 -27 22 -86 30 -130 21 -127 35 -188 46 -208 5 -11 14 -40 18 -66 l8 -46 1 62 c0 34 -3 64 -7 67 -5 3 -12 52 -15 108 -3 57 -11 117 -16 133 -6 17 -22 84 -36 150 -49 228 -63 282 -89 350 -8 22 -15 55 -16 73 0 18 -11 49 -23 70 -13 20 -27 62 -31 92 -4 30 -11 72 -17 92 -11 42 -53 97 -62 81z"/> <path d="M2627 7023 c-17 -31 -14 -61 8 -88 l24 -30 1 47 c0 25 -3 53 -6 62 -6 17 -20 21 -27 9z"/> <path d="M1522 6928 c2 -13 8 -23 13 -23 6 0 11 10 13 23 2 15 -2 22 -13 22 -11 0 -15 -7 -13 -22z"/> <path d="M2660 6867 c-19 -31 -25 -215 -9 -307 7 -41 14 -158 15 -260 2 -226 2 -226 13 -214 8 8 17 57 42 219 22 148 31 370 14 370 -5 0 -10 -9 -10 -20 -1 -31 -16 -66 -26 -60 -12 8 -12 77 1 109 6 18 5 40 -6 77 -9 28 -13 62 -10 75 8 31 -7 38 -24 11z"/> <path d="M6903 6844 c-16 -25 -18 -49 -16 -234 2 -291 1 -282 15 -278 36 12 76 138 44 138 -22 0 -31 148 -17 277 12 116 5 144 -26 97z"/> <path d="M1647 6373 c-10 -16 -13 -90 -4 -99 13 -14 18 4 15 57 -2 32 -6 49 -11 42z"/> <path d="M6862 6160 c0 -19 2 -27 5 -17 2 9 2 25 0 35 -3 9 -5 1 -5 -18z"/> <path d="M6842 6080 c0 -19 2 -27 5 -17 2 9 2 25 0 35 -3 9 -5 1 -5 -18z"/> <path d="M1666 6069 c-10 -19 -22 -61 -27 -94 -4 -33 -13 -87 -18 -120 -8 -48 -7 -63 5 -76 18 -20 18 -94 0 -145 -14 -41 -32 -149 -28 -174 5 -37 -23 -103 -59 -140 l-39 -40 26 -6 c27 -7 54 -58 54 -103 0 -15 7 -37 16 -50 27 -38 15 -126 -24 -180 -18 -24 -32 -48 -32 -53 0 -21 29 -3 68 42 24 28 50 50 58 50 28 0 109 -48 130 -77 12 -16 32 -51 44 -79 33 -74 56 -94 105 -94 23 0 50 7 61 15 28 21 53 18 112 -11 52 -26 98 -76 87 -94 -3 -5 -10 -35 -15 -67 -9 -53 -25 -100 -52 -148 -6 -11 -15 -33 -19 -50 -8 -30 -56 -166 -77 -218 -7 -16 -12 -34 -12 -40 0 -7 -14 -50 -30 -97 -17 -46 -30 -96 -30 -110 0 -14 -7 -34 -15 -44 -27 -36 -19 -46 34 -39 31 3 51 1 55 -6 4 -6 23 -11 42 -11 46 0 56 24 22 53 -38 32 -41 63 -11 91 23 21 26 34 30 102 2 43 10 91 18 108 8 16 15 44 15 63 0 21 6 36 15 39 8 4 15 18 15 33 0 40 14 55 43 47 37 -9 59 2 51 26 -3 12 -1 24 6 28 16 10 2 63 -16 56 -20 -8 -26 10 -9 27 8 9 15 22 15 29 0 24 30 58 51 58 25 0 20 21 -7 35 -25 12 -84 72 -84 85 0 5 9 11 20 15 16 5 18 12 13 38 -3 18 -11 37 -17 43 -16 17 -64 26 -71 14 -12 -20 -52 -10 -78 20 -15 17 -35 30 -45 30 -10 0 -27 6 -38 14 -11 8 -31 16 -44 18 -17 2 -30 14 -40 35 -12 27 -21 33 -48 33 -29 0 -32 3 -27 20 4 14 2 20 -9 20 -12 0 -111 45 -125 56 -2 2 1 10 8 17 13 16 1 30 -36 41 -11 4 -24 14 -27 23 -7 18 10 34 30 26 19 -7 26 13 9 27 -8 7 -15 20 -15 30 0 11 -10 20 -25 24 -33 8 -33 36 1 36 32 0 124 -29 144 -45 35 -29 120 -29 120 0 0 17 -141 85 -177 85 -39 0 -98 59 -88 89 3 11 6 40 7 63 0 29 7 50 20 65 13 14 19 30 15 43 -3 11 -1 23 5 26 5 4 7 19 4 35 -3 16 -1 29 4 29 14 0 13 77 -1 86 -8 5 -9 50 -5 153 6 143 5 147 -17 175 l-24 29 -17 -34z m429 -1259 c-3 -5 -15 -10 -26 -10 -10 0 -19 5 -19 10 0 6 12 10 26 10 14 0 23 -4 19 -10z"/> <path d="M6807 5953 c-4 -3 -7 -17 -7 -30 0 -33 24 -24 28 10 3 26 -7 35 -21 20z"/> <path d="M6791 5811 c-22 -14 -28 -189 -8 -239 8 -21 19 -70 22 -109 7 -69 7 -70 -29 -119 -20 -27 -46 -59 -58 -71 -25 -26 -16 -43 13 -25 11 7 24 10 28 7 19 -11 40 -101 34 -143 l-6 -44 -61 7 c-107 11 -117 22 -71 77 24 29 34 68 17 68 -13 0 -37 -29 -59 -70 -45 -87 -138 -160 -202 -160 -20 0 -52 -5 -71 -11 -19 -6 -105 -13 -190 -16 -197 -7 -188 -7 -235 6 -22 6 -63 11 -92 11 -28 0 -55 5 -58 10 -3 6 -19 10 -35 10 -37 0 -143 60 -203 116 -42 40 -51 45 -80 39 -46 -10 -50 -14 -43 -46 6 -34 -25 -89 -66 -113 -31 -19 -119 -21 -136 -4 -9 9 -12 6 -12 -14 0 -31 19 -41 81 -42 57 -1 119 -33 119 -61 0 -15 14 -26 53 -43 30 -13 60 -35 72 -52 11 -17 26 -30 33 -30 6 0 12 -8 12 -18 0 -11 9 -27 20 -37 11 -10 22 -33 26 -51 3 -19 10 -37 15 -40 5 -3 9 -22 9 -42 1 -58 18 -73 73 -66 55 8 53 24 -4 24 -42 0 -54 21 -22 38 14 9 14 11 -6 22 -17 9 -20 15 -12 23 16 16 14 23 -14 35 -20 9 -23 15 -16 34 5 15 19 25 37 28 27 5 29 9 32 57 l3 52 -37 7 c-22 4 -51 2 -71 -5 -42 -16 -53 -8 -53 35 0 31 -3 35 -22 33 -13 -1 -35 1 -50 4 -16 4 -39 9 -53 12 -20 4 -25 12 -25 34 0 16 7 34 15 41 8 7 15 29 15 50 0 32 4 39 24 44 40 10 86 -4 86 -25 0 -11 10 -23 23 -28 81 -32 107 -46 112 -62 5 -14 16 -18 43 -18 65 0 265 -21 347 -36 103 -19 185 -19 211 0 10 8 33 15 49 15 17 0 46 5 65 10 19 6 69 15 110 20 42 6 100 19 130 31 82 31 83 31 118 9 21 -13 32 -27 32 -43 0 -13 13 -42 28 -63 46 -63 62 -126 61 -244 0 -108 -11 -140 -47 -140 -7 0 -27 -7 -42 -17 -28 -16 -31 -25 -47 -127 l-5 -39 51 7 c48 6 52 5 61 -19 11 -29 37 -32 66 -9 15 12 16 16 5 21 -8 3 -25 17 -38 29 -13 13 -31 24 -40 24 -13 0 -14 8 -9 41 7 45 36 88 77 111 24 14 46 67 39 93 -2 6 -4 50 -6 98 -1 60 -7 95 -18 112 -9 13 -16 39 -16 57 0 21 -7 40 -20 51 -13 11 -20 29 -20 51 0 18 -7 46 -15 62 -12 24 -14 84 -10 379 4 361 -1 417 -34 396z m-1133 -1064 c2 -10 -3 -17 -12 -17 -18 0 -29 16 -21 31 9 14 29 6 33 -14z"/> <path d="M2610 5734 c0 -19 -5 -45 -12 -57 -6 -12 -17 -47 -24 -77 -15 -67 -28 -111 -48 -170 -8 -25 -22 -72 -31 -105 -9 -33 -20 -74 -26 -92 -12 -39 2 -73 31 -73 10 0 41 -26 71 -60 29 -33 56 -60 62 -60 5 0 25 14 45 31 33 30 39 31 91 25 43 -5 63 -14 86 -36 29 -28 31 -29 77 -17 l46 12 -12 30 c-11 26 -24 33 -91 53 -77 23 -118 25 -201 7 -47 -10 -87 15 -114 71 -12 26 -19 57 -17 68 3 12 15 55 27 96 25 85 31 110 58 235 14 64 17 99 10 122 -12 44 -28 42 -28 -3z"/> <path d="M8123 5751 c-13 -11 -23 -24 -23 -29 0 -6 -12 -12 -27 -14 -21 -2 -29 -9 -31 -27 -3 -19 0 -22 13 -17 9 3 28 6 41 6 14 0 24 6 24 14 0 8 14 26 30 39 17 14 30 30 30 36 0 17 -33 12 -57 -8z"/> <path d="M2356 5722 c-6 -9 12 -133 20 -141 2 -2 4 28 4 67 0 64 -10 96 -24 74z"/> <path d="M2255 5423 c4 -32 8 -102 9 -157 1 -82 4 -101 18 -110 33 -21 41 5 24 74 -9 34 -16 86 -16 116 0 58 -19 134 -34 134 -5 0 -5 -25 -1 -57z"/> <path d="M7725 5409 c-4 -6 -5 -13 -2 -16 7 -7 27 6 27 18 0 12 -17 12 -25 -2z"/> <path d="M1740 5140 c0 -5 9 -10 20 -10 11 0 20 5 20 10 0 6 -9 10 -20 10 -11 0 -20 -4 -20 -10z"/> <path d="M3312 5031 c-18 -3 -33 -10 -34 -16 0 -5 19 -24 43 -41 l44 -31 135 3 c74 2 144 8 155 13 11 5 32 13 48 20 15 6 27 17 27 25 0 17 -53 12 -109 -10 -46 -19 -77 -17 -93 4 -7 11 -23 24 -35 30 -22 12 -124 14 -181 3z"/> <path d="M3988 4979 c-10 -7 -10 -11 0 -21 8 -8 38 -12 85 -11 85 2 120 -9 167 -54 19 -18 38 -33 42 -33 4 0 24 -16 43 -36 20 -20 39 -34 42 -31 6 7 -66 117 -76 117 -5 0 -25 17 -47 38 l-38 37 -103 1 c-57 0 -108 -3 -115 -7z"/> <path d="M5464 4959 c-7 -12 9 -16 41 -9 l30 6 -33 5 c-18 3 -35 2 -38 -2z"/> <path d="M5200 4832 c0 -24 11 -59 30 -93 16 -30 30 -62 30 -71 0 -10 4 -18 9 -18 11 0 19 -22 30 -87 18 -103 59 -234 77 -248 35 -27 65 -14 38 16 -9 10 -14 26 -10 35 3 9 2 22 -2 28 -11 13 -30 82 -42 146 -14 79 -32 134 -50 155 -9 11 -25 38 -35 60 -10 22 -24 46 -32 53 -7 7 -13 24 -13 38 0 15 -6 24 -15 24 -11 0 -15 -11 -15 -38z"/> <path d="M5731 4665 c22 -23 69 -35 69 -17 0 10 -58 42 -77 42 -11 0 -9 -6 8 -25z"/> <path d="M4692 4661 c-10 -6 -4 -14 23 -30 28 -16 52 -21 103 -20 37 0 76 4 87 8 16 7 14 9 -15 15 -19 5 -51 7 -72 6 -20 -1 -50 6 -67 14 -34 18 -41 19 -59 7z"/> <path d="M2679 4645 c41 -18 43 -18 67 0 17 13 14 14 -41 14 l-60 0 34 -14z"/> <path d="M2516 4621 c-3 -4 -10 -20 -15 -33 -10 -26 -10 -26 20 -11 17 8 29 22 29 34 0 19 -24 27 -34 10z"/> <path d="M4540 4620 c0 -5 9 -10 20 -10 11 0 20 5 20 10 0 6 -9 10 -20 10 -11 0 -20 -4 -20 -10z"/> <path d="M2678 4603 c-24 -6 -23 -40 2 -53 42 -23 80 16 48 48 -12 12 -20 13 -50 5z"/> <path d="M2850 4600 c0 -6 9 -14 19 -17 11 -3 22 -15 25 -28 7 -26 52 -43 69 -26 8 8 7 11 -3 11 -7 0 -23 8 -34 19 -37 33 -76 54 -76 41z"/> <path d="M1939 4548 c-14 -5 -33 -24 -42 -44 -9 -19 -24 -37 -32 -40 -27 -11 -17 -36 13 -32 19 2 28 9 30 25 2 11 19 32 38 45 49 33 45 64 -7 46z"/> <path d="M4410 4535 c0 -8 5 -15 10 -15 6 0 10 7 10 15 0 8 -4 15 -10 15 -5 0 -10 -7 -10 -15z"/> <path d="M3605 4524 c23 -17 76 -15 83 4 3 8 -11 12 -50 12 -49 -1 -52 -2 -33 -16z"/> <path d="M3275 4500 c3 -5 33 -10 65 -10 32 0 62 5 65 10 4 6 -20 10 -65 10 -45 0 -69 -4 -65 -10z"/> <path d="M3750 4499 c80 -16 175 -16 165 1 -4 6 -50 9 -108 9 -89 -1 -96 -3 -57 -10z"/> <path d="M2617 4484 c-9 -10 2 -24 19 -24 8 0 14 7 14 15 0 15 -21 21 -33 9z"/> <path d="M3950 4483 c0 -17 56 -35 100 -32 26 2 44 -2 49 -10 6 -9 19 -10 46 -5 41 7 31 24 -15 24 -15 0 -31 5 -36 10 -15 15 -144 26 -144 13z"/> <path d="M5651 4410 c3 -48 1 -52 -35 -82 l-38 -31 23 -19 c20 -15 22 -19 9 -28 -32 -21 -100 -4 -100 25 0 7 -14 16 -31 20 -35 8 -47 1 -32 -17 6 -7 13 -30 17 -50 7 -38 12 -42 53 -39 11 1 24 -2 27 -7 3 -5 27 -7 53 -5 52 6 96 43 88 74 -8 25 17 50 43 43 23 -7 32 -47 12 -59 -5 -3 -10 -18 -10 -32 0 -13 -8 -38 -17 -54 -19 -32 -12 -49 12 -29 9 7 33 13 53 12 20 -1 52 3 69 9 26 8 41 7 72 -7 34 -15 41 -23 46 -56 10 -58 66 -152 93 -156 25 -4 29 10 7 28 -8 7 -15 18 -15 24 0 6 -14 24 -30 40 -35 34 -34 49 1 54 13 2 31 10 40 18 13 11 42 13 146 9 126 -5 131 -4 167 20 23 16 51 25 74 25 21 0 47 7 59 15 66 46 202 57 243 20 10 -9 21 -12 24 -7 3 5 -4 18 -15 28 -11 9 -25 37 -31 61 -12 50 -22 52 -114 28 -48 -12 -78 -28 -104 -55 -22 -23 -65 -41 -87 -35 -16 4 -34 0 -50 -11 -24 -15 -38 -15 -105 1 -20 5 -35 1 -55 -15 -60 -47 -84 -51 -180 -28 -48 11 -96 27 -106 36 -10 9 -33 15 -57 14 -36 -2 -43 2 -60 31 -11 17 -20 40 -20 50 0 9 -7 17 -15 17 -8 0 -15 5 -15 10 0 6 5 10 10 10 6 0 10 5 10 10 0 6 -20 10 -45 10 -51 0 -72 23 -41 45 11 8 13 15 7 20 -21 13 -11 36 19 41 43 9 26 24 -26 24 l-45 0 2 -50z"/> <path d="M2605 4373 c-7 -30 5 -46 28 -37 22 8 21 20 -2 43 -19 19 -19 19 -26 -6z"/> <path d="M1345 4241 c-6 -11 9 -23 19 -14 9 9 7 23 -3 23 -6 0 -12 -4 -16 -9z"/> <path d="M8156 4113 c32 -32 77 -63 90 -63 2 0 -7 11 -20 25 -13 14 -26 25 -30 25 -4 0 -17 11 -30 25 -13 14 -29 25 -36 25 -7 0 4 -17 26 -37z"/> <path d="M5560 4110 c-14 -4 -50 -16 -80 -25 -30 -9 -65 -25 -78 -36 -14 -10 -35 -19 -47 -19 -32 0 -256 -116 -283 -147 -28 -30 -102 -83 -119 -83 -6 0 -37 -20 -70 -43 -32 -24 -67 -47 -78 -50 -48 -14 -106 -38 -148 -62 -25 -14 -54 -25 -64 -25 -10 -1 -43 -14 -73 -30 -30 -17 -62 -30 -70 -30 -25 0 -80 -39 -80 -56 0 -18 34 -11 62 14 13 11 43 15 113 16 l95 1 38 -42 c31 -36 44 -43 74 -43 23 0 40 -6 46 -16 15 -27 149 -55 162 -33 13 20 2 30 -26 23 -19 -5 -24 -2 -24 14 0 23 -44 55 -68 50 -9 -3 -16 -10 -14 -17 5 -22 -22 -6 -28 16 -3 12 -17 31 -32 43 l-28 21 -11 -28 c-10 -27 -11 -27 -25 -9 -8 11 -14 30 -14 42 0 26 71 94 99 94 10 0 24 7 31 15 7 8 18 15 25 15 7 0 18 7 25 15 8 9 30 15 59 15 43 0 50 4 121 71 41 39 96 84 123 101 27 18 47 39 47 49 0 14 11 19 48 24 26 3 76 20 112 37 37 18 80 32 100 32 46 -1 170 -24 193 -36 32 -17 87 -19 87 -4 0 19 -57 59 -71 50 -16 -10 -58 16 -52 33 6 15 -24 53 -41 52 -6 0 -22 -4 -36 -9z"/> <path d="M4794 4014 c3 -9 6 -20 6 -25 0 -6 5 -7 10 -4 16 10 12 45 -6 45 -11 0 -14 -5 -10 -16z"/> <path d="M4036 3985 c-3 -9 1 -18 10 -22 19 -7 28 2 21 22 -8 19 -23 19 -31 0z"/> <path d="M4583 3893 c-20 -8 -15 -23 7 -23 11 0 20 7 20 15 0 15 -6 17 -27 8z"/> <path d="M5853 3878 c-13 -6 -23 -15 -23 -20 0 -4 -9 -17 -20 -28 -12 -12 -18 -25 -15 -30 9 -15 35 -12 41 5 4 9 16 21 27 27 16 8 23 7 32 -5 11 -15 42 -27 45 -17 5 16 -15 62 -30 70 -22 12 -29 12 -57 -2z"/> <path d="M2446 3825 c-3 -9 1 -18 10 -22 19 -7 39 11 30 26 -10 16 -33 13 -40 -4z"/> <path d="M2276 3814 c-10 -25 2 -34 37 -27 41 7 49 15 36 33 -8 11 -12 12 -16 3 -6 -15 -33 -17 -33 -3 0 16 -17 12 -24 -6z"/> <path d="M3870 3820 c0 -5 11 -10 25 -10 14 0 25 5 25 10 0 6 -11 10 -25 10 -14 0 -25 -4 -25 -10z"/> <path d="M7102 3813 c2 -10 18 -27 35 -38 18 -11 31 -25 28 -31 -5 -15 15 -34 35 -34 17 0 33 -25 45 -67 3 -12 15 -25 25 -28 10 -3 22 -15 25 -26 4 -10 12 -19 19 -19 8 0 21 -10 29 -22 9 -13 16 -18 16 -12 1 6 -6 17 -14 24 -8 7 -15 18 -15 25 0 14 -22 43 -80 103 -19 21 -46 56 -60 79 -32 53 -96 87 -88 46z"/> <path d="M3472 3804 c3 -17 14 -19 102 -22 76 -2 97 0 94 10 -3 9 -27 13 -74 13 -38 1 -82 5 -97 9 -25 8 -29 6 -25 -10z"/> <path d="M6415 3780 c-10 -11 -28 -20 -41 -20 -13 0 -25 -4 -28 -9 -3 -5 -14 -7 -25 -4 -11 3 -27 -4 -40 -18 -16 -18 -33 -23 -76 -24 -30 -1 -58 -4 -61 -8 -11 -10 32 -26 67 -24 19 1 44 -2 57 -6 18 -7 22 -5 22 12 0 14 6 21 20 21 10 0 24 9 30 20 8 15 21 20 50 20 41 0 102 28 97 45 -7 19 -53 16 -72 -5z"/> <path d="M5953 3774 c-8 -21 23 -52 38 -37 8 8 8 17 0 32 -14 25 -29 27 -38 5z"/> <path d="M5807 3734 c-8 -8 1 -24 14 -24 5 0 9 7 9 15 0 15 -12 20 -23 9z"/> <path d="M6265 3600 c-10 -16 4 -30 31 -30 28 0 31 8 7 26 -22 16 -30 17 -38 4z"/> <path d="M7360 3507 c0 -16 110 -131 118 -123 3 4 -1 12 -9 19 -9 6 -31 36 -50 64 -32 50 -59 68 -59 40z"/> <path d="M6580 3496 c0 -14 29 -31 38 -22 2 3 2 12 -1 21 -8 19 -37 20 -37 1z"/> <path d="M4278 3484 c-33 -17 -36 -40 -8 -47 14 -4 29 3 45 21 14 15 25 30 25 34 0 13 -33 8 -62 -8z"/> <path d="M6640 3475 c-14 -16 -6 -35 16 -35 8 0 14 10 14 25 0 28 -12 32 -30 10z"/> <path d="M6680 3395 c0 -8 5 -15 11 -15 5 0 15 -13 20 -30 6 -16 17 -30 24 -30 8 0 21 -7 29 -16 31 -30 50 13 23 51 -10 13 -16 15 -21 6 -4 -6 -12 -9 -17 -5 -6 4 -6 11 2 20 16 20 3 30 -17 13 -14 -11 -17 -10 -25 4 -12 21 -29 22 -29 2z"/> <path d="M4974 3379 c-3 -6 0 -15 7 -20 19 -12 99 -11 99 1 0 6 -9 10 -19 10 -11 0 -23 5 -26 10 -8 14 -52 13 -61 -1z"/> <path d="M3748 3363 c-16 -2 -28 -8 -28 -12 0 -5 11 -6 25 -3 15 2 33 -2 43 -11 9 -8 31 -18 49 -22 37 -7 58 -36 70 -94 11 -60 28 -52 30 16 1 49 -2 61 -24 81 -13 12 -37 24 -52 26 -14 1 -36 8 -48 14 -12 7 -25 11 -30 11 -4 -1 -20 -4 -35 -6z"/> <path d="M5190 3246 c0 -22 16 -36 41 -36 18 0 8 28 -16 44 -24 16 -25 16 -25 -8z"/> <path d="M5260 3192 c0 -14 75 -42 114 -42 48 0 39 13 -23 34 -54 17 -91 21 -91 8z"/> <path d="M5595 3100 c28 -12 55 -12 55 0 0 6 -17 10 -37 9 -31 0 -34 -2 -18 -9z"/> <path d="M6012 3093 c2 -11 14 -19 31 -21 23 -3 28 0 25 15 -2 11 -14 19 -31 21 -23 3 -28 0 -25 -15z"/> <path d="M5925 3080 c-8 -12 20 -24 35 -15 6 3 8 11 5 16 -8 12 -32 12 -40 -1z"/> <path d="M6220 3041 c0 -12 45 -22 65 -15 13 5 14 8 3 15 -17 11 -68 11 -68 0z"/> <path d="M6900 3035 c-10 -12 -7 -17 14 -26 31 -14 53 -1 43 25 -8 20 -41 21 -57 1z"/> <path d="M6398 3008 c17 -8 26 -8 34 0 9 9 4 12 -22 11 -33 0 -34 -1 -12 -11z"/> <path d="M6740 3010 c0 -5 7 -10 15 -10 8 0 15 5 15 10 0 6 -7 10 -15 10 -8 0 -15 -4 -15 -10z"/> <path d="M5574 2522 c3 -5 24 -12 47 -16 23 -4 53 -12 68 -20 27 -13 61 -11 61 4 0 10 -75 30 -139 37 -27 3 -41 2 -37 -5z"/> </g> </svg> 